<svg xmlns="http://www.w3.org/2000/svg" width="137" height="22" viewBox="0 0 137 22" fill="none"><path d="M14.7499 5.69449L12.7471 2.02242C12.2499 1.1108 12.0013 0.654994 11.6721 0.504571C11.3852 0.373485 11.0555 0.373476 10.7687 0.504545C10.4395 0.654949 10.1908 1.11074 9.69356 2.02233L7.69038 5.69456C7.55585 5.94118 7.48859 6.06449 7.39653 6.16384C7.31494 6.2519 7.21933 6.32583 7.11357 6.38264C6.99425 6.44673 6.85798 6.4808 6.58545 6.54893L2.32112 7.61501C1.40114 7.84501 0.94115 7.96 0.715836 8.2221C0.519156 8.45088 0.426415 8.75113 0.459807 9.05098C0.498061 9.39449 0.813066 9.74887 1.44308 10.4576L4.23773 13.6016C4.41875 13.8053 4.50926 13.9071 4.5707 14.0235C4.62517 14.1267 4.66266 14.238 4.68174 14.3531C4.70326 14.483 4.6928 14.6189 4.67189 14.8905L4.32516 19.3944C4.24518 20.4334 4.20519 20.9528 4.39992 21.2586C4.56962 21.5251 4.84685 21.7045 5.15944 21.7503C5.51816 21.8027 5.97572 21.5536 6.89084 21.0553L10.3877 19.1512C10.6918 18.9856 10.8439 18.9028 11.0046 18.8704C11.1468 18.8416 11.2934 18.8417 11.4356 18.8705C11.5963 18.9031 11.7483 18.986 12.0522 19.1518L15.5483 21.0588C16.4637 21.5581 16.9214 21.8077 17.2803 21.7554C17.593 21.7098 17.8704 21.5304 18.0402 21.2639C18.2351 20.958 18.1951 20.4382 18.1151 19.3986L17.7684 14.8905C17.7475 14.6188 17.737 14.483 17.7585 14.3531C17.7776 14.238 17.8151 14.1267 17.8696 14.0235C17.931 13.9071 18.0215 13.8053 18.2025 13.6017L20.9972 10.4576C21.6272 9.74888 21.9422 9.39448 21.9805 9.05098C22.0139 8.75113 21.9211 8.45088 21.7245 8.2221C21.4991 7.96 21.0392 7.84501 20.1192 7.61501L15.8549 6.54895C15.5823 6.48081 15.4461 6.44674 15.3267 6.38264C15.221 6.32583 15.1254 6.25189 15.0438 6.16382C14.9517 6.06446 14.8844 5.94114 14.7499 5.69449Z" fill="#FBFF3E"></path><path d="M43.4456 5.69449L41.4428 2.02242C40.9455 1.1108 40.6969 0.654994 40.3677 0.504571C40.0809 0.373485 39.7512 0.373476 39.4643 0.504545C39.1351 0.654949 38.8865 1.11074 38.3892 2.02233L36.386 5.69456C36.2515 5.94118 36.1842 6.06449 36.0922 6.16384C36.0106 6.2519 35.915 6.32583 35.8092 6.38264C35.6899 6.44673 35.5536 6.4808 35.2811 6.54893L31.0168 7.61501C30.0968 7.84501 29.6368 7.96 29.4115 8.2221C29.2148 8.45088 29.1221 8.75113 29.1555 9.05098C29.1937 9.39449 29.5087 9.74887 30.1387 10.4576L32.9334 13.6016C33.1144 13.8053 33.2049 13.9071 33.2664 14.0235C33.3208 14.1267 33.3583 14.238 33.3774 14.3531C33.3989 14.483 33.3885 14.6189 33.3675 14.8905L33.0208 19.3944C32.9408 20.4334 32.9008 20.9528 33.0956 21.2586C33.2653 21.5251 33.5425 21.7045 33.8551 21.7503C34.2138 21.8027 34.6714 21.5536 35.5865 21.0553L39.0834 19.1512C39.3875 18.9856 39.5395 18.9028 39.7002 18.8704C39.8425 18.8416 39.989 18.8417 40.1312 18.8705C40.2919 18.9031 40.4439 18.986 40.7479 19.1518L44.244 21.0588C45.1594 21.5581 45.6171 21.8077 45.9759 21.7554C46.2887 21.7098 46.5661 21.5304 46.7359 21.2639C46.9307 20.958 46.8908 20.4382 46.8108 19.3986L46.464 14.8905C46.4431 14.6188 46.4327 14.483 46.4542 14.3531C46.4733 14.238 46.5108 14.1267 46.5652 14.0235C46.6267 13.9071 46.7172 13.8053 46.8982 13.6017L49.6929 10.4576C50.3229 9.74888 50.6379 9.39448 50.6761 9.05098C50.7095 8.75113 50.6168 8.45088 50.4201 8.2221C50.1948 7.96 49.7348 7.84501 48.8148 7.61501L44.5506 6.54895C44.278 6.48081 44.1417 6.44674 44.0224 6.38264C43.9166 6.32583 43.821 6.25189 43.7394 6.16382C43.6474 6.06446 43.5801 5.94114 43.4456 5.69449Z" fill="#FBFF3E"></path><path d="M72.1412 5.69449L70.1384 2.02242C69.6412 1.1108 69.3926 0.654994 69.0634 0.504571C68.7765 0.373485 68.4468 0.373476 68.16 0.504545C67.8308 0.654949 67.5821 1.11074 67.0849 2.02233L65.0817 5.69456C64.9472 5.94118 64.8799 6.06449 64.7878 6.16384C64.7062 6.2519 64.6106 6.32583 64.5049 6.38264C64.3856 6.44673 64.2493 6.4808 63.9768 6.54893L59.7124 7.61501C58.7924 7.84501 58.3325 7.96 58.1071 8.2221C57.9105 8.45088 57.8177 8.75113 57.8511 9.05098C57.8894 9.39449 58.2044 9.74887 58.8344 10.4576L61.629 13.6016C61.8101 13.8053 61.9006 13.9071 61.962 14.0235C62.0165 14.1267 62.054 14.238 62.073 14.3531C62.0946 14.483 62.0841 14.6189 62.0632 14.8905L61.7165 19.3944C61.6365 20.4334 61.5965 20.9528 61.7912 21.2586C61.9609 21.5251 62.2381 21.7045 62.5507 21.7503C62.9095 21.8027 63.367 21.5536 64.2821 21.0553L67.7791 19.1512C68.0831 18.9856 68.2352 18.9028 68.3959 18.8704C68.5381 18.8416 68.6847 18.8417 68.8269 18.8705C68.9876 18.9031 69.1396 18.986 69.4435 19.1518L72.9396 21.0588C73.855 21.5581 74.3127 21.8077 74.6716 21.7554C74.9843 21.7098 75.2617 21.5304 75.4315 21.2639C75.6264 20.958 75.5864 20.4382 75.5064 19.3986L75.1597 14.8905C75.1388 14.6188 75.1283 14.483 75.1498 14.3531C75.1689 14.238 75.2064 14.1267 75.2609 14.0235C75.3223 13.9071 75.4128 13.8053 75.5938 13.6017L78.3885 10.4576C79.0185 9.74888 79.3335 9.39448 79.3718 9.05098C79.4052 8.75113 79.3124 8.45088 79.1158 8.2221C78.8904 7.96 78.4305 7.84501 77.5105 7.61501L73.2462 6.54895C72.9737 6.48081 72.8374 6.44674 72.718 6.38264C72.6123 6.32583 72.5167 6.25189 72.4351 6.16382C72.343 6.06446 72.2757 5.94114 72.1412 5.69449Z" fill="#FBFF3E"></path><path d="M100.837 5.69449L98.8341 2.02242C98.3369 1.1108 98.0883 0.654994 97.7591 0.504571C97.4722 0.373485 97.1425 0.373476 96.8556 0.504545C96.5264 0.654949 96.2778 1.11074 95.7805 2.02233L93.7774 5.69456C93.6428 5.94118 93.5755 6.06449 93.4835 6.16384C93.4019 6.2519 93.3063 6.32583 93.2005 6.38264C93.0812 6.44673 92.945 6.4808 92.6724 6.54893L88.4081 7.61501C87.4881 7.84501 87.0281 7.96 86.8028 8.2221C86.6061 8.45088 86.5134 8.75113 86.5468 9.05098C86.585 9.39449 86.9 9.74887 87.53 10.4576L90.3247 13.6016C90.5057 13.8053 90.5962 13.9071 90.6577 14.0235C90.7121 14.1267 90.7496 14.238 90.7687 14.3531C90.7902 14.483 90.7798 14.6189 90.7589 14.8905L90.4121 19.3944C90.3321 20.4334 90.2921 20.9528 90.4869 21.2586C90.6566 21.5251 90.9338 21.7045 91.2464 21.7503C91.6051 21.8027 92.0627 21.5536 92.9778 21.0553L96.4747 19.1512C96.7788 18.9856 96.9308 18.9028 97.0915 18.8704C97.2338 18.8416 97.3803 18.8417 97.5226 18.8705C97.6832 18.9031 97.8352 18.986 98.1392 19.1518L101.635 21.0588C102.551 21.5581 103.008 21.8077 103.367 21.7554C103.68 21.7098 103.957 21.5304 104.127 21.2639C104.322 20.958 104.282 20.4382 104.202 19.3986L103.855 14.8905C103.834 14.6188 103.824 14.483 103.845 14.3531C103.865 14.238 103.902 14.1267 103.957 14.0235C104.018 13.9071 104.108 13.8053 104.289 13.6017L107.084 10.4576C107.714 9.74888 108.029 9.39448 108.067 9.05098C108.101 8.75113 108.008 8.45088 107.811 8.2221C107.586 7.96 107.126 7.84501 106.206 7.61501L101.942 6.54895C101.669 6.48081 101.533 6.44674 101.414 6.38264C101.308 6.32583 101.212 6.25189 101.131 6.16382C101.039 6.06446 100.971 5.94114 100.837 5.69449Z" fill="#FBFF3E"></path><path d="M129.533 5.69449L127.53 2.02242C127.033 1.1108 126.784 0.654994 126.455 0.504571C126.168 0.373485 125.838 0.373476 125.551 0.504545C125.222 0.654949 124.973 1.11074 124.476 2.02233L122.473 5.69456C122.338 5.94118 122.271 6.06449 122.179 6.16384C122.098 6.2519 122.002 6.32583 121.896 6.38264C121.777 6.44673 121.641 6.4808 121.368 6.54893L117.104 7.61501C116.184 7.84501 115.724 7.96 115.498 8.2221C115.302 8.45088 115.209 8.75113 115.242 9.05098C115.281 9.39449 115.596 9.74887 116.226 10.4576L119.02 13.6016C119.201 13.8053 119.292 13.9071 119.353 14.0235C119.408 14.1267 119.445 14.238 119.464 14.3531C119.486 14.483 119.475 14.6189 119.455 14.8905L119.108 19.3944C119.028 20.4334 118.988 20.9528 119.183 21.2586C119.352 21.5251 119.629 21.7045 119.942 21.7503C120.301 21.8027 120.758 21.5536 121.673 21.0553L125.17 19.1512C125.474 18.9856 125.626 18.9028 125.787 18.8704C125.929 18.8416 126.076 18.8417 126.218 18.8705C126.379 18.9031 126.531 18.986 126.835 19.1518L130.331 21.0588C131.246 21.5581 131.704 21.8077 132.063 21.7554C132.376 21.7098 132.653 21.5304 132.823 21.2639C133.018 20.958 132.978 20.4382 132.898 19.3986L132.551 14.8905C132.53 14.6188 132.52 14.483 132.541 14.3531C132.56 14.238 132.598 14.1267 132.652 14.0235C132.714 13.9071 132.804 13.8053 132.985 13.6017L135.78 10.4576C136.41 9.74888 136.725 9.39448 136.763 9.05098C136.796 8.75113 136.704 8.45088 136.507 8.2221C136.282 7.96 135.822 7.84501 134.902 7.61501L130.638 6.54895C130.365 6.48081 130.229 6.44674 130.109 6.38264C130.004 6.32583 129.908 6.25189 129.826 6.16382C129.734 6.06446 129.667 5.94114 129.533 5.69449Z" fill="#FBFF3E"></path></svg>