<svg xmlns="http://www.w3.org/2000/svg" width="2277" height="38" viewBox="0 0 2277 38" fill="none"><g opacity="0.4"><path d="M5.00391 0V17ZM14.0039 0V8ZM23.0039 0V8ZM32.0039 0V8ZM41.0039 0V8ZM50.0039 0V8ZM59.0039 0V8ZM68.0039 0V8ZM77.0039 0V8ZM86.0039 0V8ZM95.0039 0V8ZM104.004 0V8ZM113.004 0V8ZM122.004 0V8ZM131.004 0V8ZM140.004 0V8ZM149.004 0V8ZM158.004 0V8ZM167.004 0V8ZM176.004 0V8ZM185.004 0V8ZM194.004 0V16ZM203.004 0V8ZM212.004 0V8ZM221.004 0V8ZM230.004 0V8ZM239.004 0V8ZM248.004 0V8ZM257.004 0V8ZM266.004 0V8ZM275.004 0V8ZM284.004 0V8ZM293.004 0V8ZM302.004 0V8ZM311.004 0V8ZM320.004 0V8ZM329.004 0V8ZM338.004 0V8ZM347.004 0V8ZM356.004 0V8ZM365.004 0V8ZM374.004 0V8ZM383.004 0V16ZM392.004 0V8ZM401.004 0V8ZM410.004 0V8ZM419.004 0V8ZM428.004 0V8ZM437.004 0V8ZM446.004 0V8ZM455.004 0V8ZM464.004 0V8ZM473.004 0V8ZM482.004 0V8ZM491.004 0V8ZM500.004 0V8ZM509.004 0V8ZM518.004 0V8ZM527.004 0V8ZM536.004 0V8ZM545.004 0V8ZM554.004 0V8ZM563.004 0V8ZM572.004 0V16ZM581.004 0V8ZM590.004 0V8ZM599.004 0V8ZM608.004 0V8ZM617.004 0V8ZM626.004 0V8ZM635.004 0V8ZM644.004 0V8ZM653.004 0V8ZM662.004 0V8ZM671.004 0V8ZM680.004 0V8ZM689.004 0V8ZM698.004 0V8ZM707.004 0V8ZM716.004 0V8ZM725.004 0V8ZM734.004 0V8ZM743.004 0V8ZM752.004 0V8ZM761.004 0V16ZM770.004 0V8ZM779.004 0V8ZM788.004 0V8ZM797.004 0V8ZM806.004 0V8ZM815.004 0V8ZM824.004 0V8ZM833.004 0V8ZM842.004 0V8ZM851.004 0V8ZM860.004 0V8ZM869.004 0V8ZM878.004 0V8ZM887.004 0V8ZM896.004 0V8ZM905.004 0V8ZM914.004 0V8ZM923.004 0V8ZM932.004 0V8ZM941.004 0V8ZM950.004 0V16ZM959.004 0V8ZM968.004 0V8ZM977.004 0V8ZM986.004 0V8ZM995.004 0V8ZM1004 0V8ZM1013 0V8ZM1022 0V8ZM1031 0V8ZM1040 0V8ZM1049 0V8ZM1058 0V8ZM1067 0V8ZM1076 0V8ZM1085 0V8ZM1094 0V8ZM1103 0V8ZM1112 0V8ZM1121 0V8ZM1130 0V8ZM1139 0V16ZM1148 0V8ZM1157 0V8ZM1166 0V8ZM1175 0V8ZM1184 0V8ZM1193 0V8ZM1202 0V8ZM1211 0V8ZM1220 0V8ZM1229 0V8ZM1238 0V8ZM1247 0V8ZM1256 0V8ZM1265 0V8ZM1274 0V8ZM1283 0V8ZM1292 0V8ZM1301 0V8ZM1310 0V8ZM1319 0V8ZM1328 0V16ZM1337 0V8ZM1346 0V8ZM1355 0V8ZM1364 0V8ZM1373 0V8ZM1382 0V8ZM1391 0V8ZM1400 0V8ZM1409 0V8ZM1418 0V8ZM1427 0V8ZM1436 0V8ZM1445 0V8ZM1454 0V8ZM1463 0V8ZM1472 0V8ZM1481 0V8ZM1490 0V8ZM1499 0V8ZM1508 0V8ZM1517 0V16ZM1526 0V8ZM1535 0V8ZM1544 0V8ZM1553 0V8ZM1562 0V8ZM1571 0V8ZM1580 0V8ZM1589 0V8ZM1598 0V8ZM1607 0V8ZM1616 0V8ZM1625 0V8ZM1634 0V8ZM1643 0V8ZM1652 0V8ZM1661 0V8ZM1670 0V8ZM1679 0V8ZM1688 0V8ZM1697 0V8ZM1706 0V16ZM1715 0V8ZM1724 0V8ZM1733 0V8ZM1742 0V8ZM1751 0V8ZM1760 0V8ZM1769 0V8ZM1778 0V8ZM1787 0V8ZM1796 0V8ZM1805 0V8ZM1814 0V8ZM1823 0V8ZM1832 0V8ZM1841 0V8ZM1850 0V8ZM1859 0V8ZM1868 0V8ZM1877 0V8ZM1886 0V8ZM1895 0V16ZM1904 0V8ZM1913 0V8ZM1922 0V8ZM1931 0V8ZM1940 0V8ZM1949 0V8ZM1958 0V8ZM1967 0V8ZM1976 0V8ZM1985 0V8ZM1994 0V8ZM2003 0V8ZM2012 0V8ZM2021 0V8ZM2030 0V8ZM2039 0V8ZM2048 0V8ZM2057 0V8ZM2066 0V8ZM2075 0V8ZM2084 0V16ZM2093 0V8ZM2102 0V8ZM2111 0V8ZM2120 0V8ZM2129 0V8ZM2138 0V8ZM2147 0V8ZM2156 0V8ZM2165 0V8ZM2174 0V8ZM2183 0V8ZM2192 0V8ZM2201 0V8ZM2210 0V8ZM2219 0V8ZM2228 0V8ZM2237 0V8ZM2246 0V8ZM2255 0V8ZM2264 0V8ZM2273 0V16Z" fill="#585858"></path><path d="M5.00391 0V17M14.0039 0V8M23.0039 0V8M32.0039 0V8M41.0039 0V8M50.0039 0V8M59.0039 0V8M68.0039 0V8M77.0039 0V8M86.0039 0V8M95.0039 0V8M104.004 0V8M113.004 0V8M122.004 0V8M131.004 0V8M140.004 0V8M149.004 0V8M158.004 0V8M167.004 0V8M176.004 0V8M185.004 0V8M194.004 0V16M203.004 0V8M212.004 0V8M221.004 0V8M230.004 0V8M239.004 0V8M248.004 0V8M257.004 0V8M266.004 0V8M275.004 0V8M284.004 0V8M293.004 0V8M302.004 0V8M311.004 0V8M320.004 0V8M329.004 0V8M338.004 0V8M347.004 0V8M356.004 0V8M365.004 0V8M374.004 0V8M383.004 0V16M392.004 0V8M401.004 0V8M410.004 0V8M419.004 0V8M428.004 0V8M437.004 0V8M446.004 0V8M455.004 0V8M464.004 0V8M473.004 0V8M482.004 0V8M491.004 0V8M500.004 0V8M509.004 0V8M518.004 0V8M527.004 0V8M536.004 0V8M545.004 0V8M554.004 0V8M563.004 0V8M572.004 0V16M581.004 0V8M590.004 0V8M599.004 0V8M608.004 0V8M617.004 0V8M626.004 0V8M635.004 0V8M644.004 0V8M653.004 0V8M662.004 0V8M671.004 0V8M680.004 0V8M689.004 0V8M698.004 0V8M707.004 0V8M716.004 0V8M725.004 0V8M734.004 0V8M743.004 0V8M752.004 0V8M761.004 0V16M770.004 0V8M779.004 0V8M788.004 0V8M797.004 0V8M806.004 0V8M815.004 0V8M824.004 0V8M833.004 0V8M842.004 0V8M851.004 0V8M860.004 0V8M869.004 0V8M878.004 0V8M887.004 0V8M896.004 0V8M905.004 0V8M914.004 0V8M923.004 0V8M932.004 0V8M941.004 0V8M950.004 0V16M959.004 0V8M968.004 0V8M977.004 0V8M986.004 0V8M995.004 0V8M1004 0V8M1013 0V8M1022 0V8M1031 0V8M1040 0V8M1049 0V8M1058 0V8M1067 0V8M1076 0V8M1085 0V8M1094 0V8M1103 0V8M1112 0V8M1121 0V8M1130 0V8M1139 0V16M1148 0V8M1157 0V8M1166 0V8M1175 0V8M1184 0V8M1193 0V8M1202 0V8M1211 0V8M1220 0V8M1229 0V8M1238 0V8M1247 0V8M1256 0V8M1265 0V8M1274 0V8M1283 0V8M1292 0V8M1301 0V8M1310 0V8M1319 0V8M1328 0V16M1337 0V8M1346 0V8M1355 0V8M1364 0V8M1373 0V8M1382 0V8M1391 0V8M1400 0V8M1409 0V8M1418 0V8M1427 0V8M1436 0V8M1445 0V8M1454 0V8M1463 0V8M1472 0V8M1481 0V8M1490 0V8M1499 0V8M1508 0V8M1517 0V16M1526 0V8M1535 0V8M1544 0V8M1553 0V8M1562 0V8M1571 0V8M1580 0V8M1589 0V8M1598 0V8M1607 0V8M1616 0V8M1625 0V8M1634 0V8M1643 0V8M1652 0V8M1661 0V8M1670 0V8M1679 0V8M1688 0V8M1697 0V8M1706 0V16M1715 0V8M1724 0V8M1733 0V8M1742 0V8M1751 0V8M1760 0V8M1769 0V8M1778 0V8M1787 0V8M1796 0V8M1805 0V8M1814 0V8M1823 0V8M1832 0V8M1841 0V8M1850 0V8M1859 0V8M1868 0V8M1877 0V8M1886 0V8M1895 0V16M1904 0V8M1913 0V8M1922 0V8M1931 0V8M1940 0V8M1949 0V8M1958 0V8M1967 0V8M1976 0V8M1985 0V8M1994 0V8M2003 0V8M2012 0V8M2021 0V8M2030 0V8M2039 0V8M2048 0V8M2057 0V8M2066 0V8M2075 0V8M2084 0V16M2093 0V8M2102 0V8M2111 0V8M2120 0V8M2129 0V8M2138 0V8M2147 0V8M2156 0V8M2165 0V8M2174 0V8M2183 0V8M2192 0V8M2201 0V8M2210 0V8M2219 0V8M2228 0V8M2237 0V8M2246 0V8M2255 0V8M2264 0V8M2273 0V16" stroke="#585858"></path></g><path opacity="0.4" d="M2.521 37.125C1.995 37.125 1.544 36.992 1.166 36.725C0.791 36.457 0.503 36.07 0.3 35.565C0.1 35.058 0 34.447 0 33.734C0.002 33.02 0.103 32.413 0.303 31.912C0.506 31.409 0.795 31.026 1.17 30.762C1.547 30.497 1.997 30.365 2.521 30.365C3.046 30.365 3.496 30.497 3.873 30.761C4.251 31.026 4.539 31.409 4.74 31.911C4.942 32.415 5.043 33.022 5.043 33.734C5.043 34.45 4.942 35.061 4.74 35.568C4.54 36.073 4.25 36.458 3.873 36.725C3.498 36.992 3.048 37.125 2.521 37.125ZM2.521 36.125C2.931 36.125 3.253 35.923 3.49 35.52C3.729 35.115 3.848 34.52 3.848 33.734C3.848 33.214 3.794 32.777 3.685 32.424C3.576 32.07 3.423 31.804 3.225 31.624C3.03425 31.4459 2.7819 31.3488 2.521 31.353C2.115 31.353 1.793 31.555 1.556 31.96C1.32 32.363 1.2 32.954 1.198 33.734C1.196 34.256 1.248 34.694 1.355 35.05C1.464 35.406 1.617 35.675 1.815 35.856C2.013 36.035 2.249 36.125 2.521 36.125ZM8.407 30.455V37H7.222V31.608H7.183L5.653 32.586V31.5L7.279 30.454L8.407 30.455ZM190.889 37.125C190.362 37.125 189.911 36.992 189.534 36.725C189.159 36.457 188.87 36.07 188.667 35.565C188.467 35.058 188.367 34.447 188.367 33.734C188.369 33.02 188.47 32.413 188.671 31.912C188.873 31.409 189.162 31.026 189.537 30.762C189.914 30.497 190.365 30.365 190.889 30.365C191.413 30.365 191.863 30.497 192.241 30.761C192.618 31.026 192.906 31.409 193.107 31.911C193.309 32.415 193.41 33.022 193.41 33.734C193.41 34.45 193.309 35.061 193.107 35.568C192.906 36.073 192.618 36.458 192.241 36.725C191.866 36.992 191.415 37.125 190.889 37.125ZM190.889 36.125C191.298 36.125 191.621 35.923 191.857 35.52C192.096 35.115 192.215 34.52 192.215 33.734C192.215 33.214 192.161 32.777 192.052 32.424C191.943 32.07 191.79 31.804 191.592 31.624C191.401 31.4461 191.15 31.349 190.889 31.353C190.482 31.353 190.16 31.555 189.923 31.96C189.687 32.363 189.568 32.954 189.566 33.734C189.563 34.256 189.616 34.694 189.722 35.05C189.831 35.406 189.984 35.675 190.182 35.856C190.381 36.035 190.616 36.125 190.889 36.125ZM194.112 37V36.144L196.385 33.916C196.602 33.696 196.783 33.501 196.928 33.331C197.073 33.161 197.181 32.995 197.254 32.836C197.326 32.676 197.363 32.506 197.363 32.324C197.368 32.1374 197.319 31.9532 197.222 31.794C197.128 31.6445 196.994 31.5246 196.835 31.448C196.66 31.3651 196.469 31.324 196.276 31.328C196.061 31.328 195.872 31.372 195.71 31.461C195.551 31.5462 195.419 31.6762 195.333 31.835C195.242 32.014 195.197 32.2131 195.202 32.414H194.074C194.074 31.998 194.169 31.637 194.358 31.33C194.547 31.024 194.818 30.7772 195.141 30.618C195.499 30.4441 195.894 30.3574 196.292 30.365C196.731 30.365 197.116 30.447 197.449 30.611C197.781 30.775 198.039 31 198.222 31.285C198.408 31.571 198.5 31.897 198.5 32.264C198.5 32.508 198.453 32.749 198.36 32.986C198.266 33.222 198.101 33.484 197.864 33.772C197.555 34.139 197.226 34.488 196.877 34.817L195.749 35.965V36.009H198.599V37H194.112ZM379.752 37.125C379.226 37.125 378.774 36.992 378.397 36.725C378.022 36.457 377.734 36.07 377.531 35.565C377.331 35.058 377.231 34.447 377.231 33.734C377.233 33.02 377.334 32.413 377.534 31.912C377.737 31.409 378.026 31.026 378.401 30.762C378.778 30.497 379.228 30.365 379.752 30.365C380.277 30.365 380.727 30.497 381.104 30.761C381.481 31.026 381.77 31.409 381.97 31.911C382.173 32.415 382.274 33.022 382.274 33.734C382.274 34.45 382.173 35.061 381.97 35.568C381.77 36.073 381.481 36.458 381.104 36.725C380.729 36.992 380.279 37.125 379.752 37.125ZM379.752 36.125C380.162 36.125 380.484 35.923 380.721 35.52C380.959 35.115 381.079 34.52 381.079 33.734C381.079 33.214 381.024 32.777 380.916 32.424C380.807 32.07 380.654 31.804 380.456 31.624C380.265 31.4461 380.013 31.349 379.752 31.353C379.345 31.353 379.024 31.555 378.787 31.96C378.551 32.363 378.431 32.954 378.429 33.734C378.427 34.256 378.479 34.694 378.586 35.05C378.695 35.406 378.848 35.675 379.046 35.856C379.244 36.035 379.48 36.125 379.752 36.125ZM385.325 37.09C384.865 37.09 384.456 37.01 384.098 36.853C383.763 36.7121 383.472 36.485 383.254 36.195C383.047 35.9116 382.932 35.5711 382.925 35.22H384.127C384.137 35.397 384.196 35.551 384.302 35.683C384.409 35.813 384.551 35.914 384.727 35.987C384.904 36.059 385.102 36.095 385.322 36.095C385.556 36.095 385.764 36.055 385.945 35.975C386.126 35.891 386.268 35.775 386.37 35.629C386.473 35.48 386.526 35.302 386.52 35.121C386.526 34.9345 386.472 34.751 386.367 34.597C386.253 34.4377 386.095 34.3145 385.913 34.242C385.688 34.1512 385.447 34.1076 385.204 34.114H384.625V33.2H385.204C385.432 33.2 385.631 33.16 385.801 33.082C385.965 33.0106 386.105 32.8953 386.207 32.749C386.306 32.6006 386.356 32.4252 386.351 32.247C386.357 32.0775 386.314 31.9099 386.226 31.765C386.142 31.6252 386.019 31.513 385.872 31.442C385.706 31.3621 385.523 31.3227 385.338 31.327C385.138 31.327 384.952 31.363 384.782 31.436C384.62 31.502 384.478 31.6087 384.369 31.746C384.264 31.8815 384.206 32.0475 384.203 32.219H383.062C383.064 31.8721 383.175 31.5346 383.379 31.254C383.583 30.974 383.856 30.757 384.197 30.602C384.557 30.44 384.949 30.3591 385.344 30.365C385.781 30.365 386.16 30.447 386.482 30.611C386.806 30.773 387.056 30.991 387.233 31.266C387.41 31.541 387.498 31.845 387.498 32.177C387.5 32.546 387.392 32.855 387.172 33.104C386.955 33.354 386.67 33.516 386.316 33.593V33.644C386.776 33.708 387.129 33.879 387.374 34.156C387.621 34.43 387.743 34.772 387.741 35.182C387.741 35.548 387.637 35.876 387.428 36.166C387.208 36.4638 386.913 36.6975 386.572 36.843C386.179 37.0132 385.753 37.0981 385.325 37.09ZM568.687 37.125C568.16 37.125 567.709 36.992 567.331 36.725C566.956 36.457 566.668 36.07 566.465 35.565C566.265 35.058 566.165 34.447 566.165 33.734C566.167 33.02 566.268 32.413 566.468 31.912C566.671 31.409 566.96 31.026 567.335 30.762C567.712 30.497 568.162 30.365 568.687 30.365C569.211 30.365 569.661 30.497 570.038 30.761C570.416 31.026 570.704 31.409 570.905 31.911C571.107 32.415 571.208 33.022 571.208 33.734C571.208 34.45 571.107 35.061 570.905 35.568C570.704 36.073 570.416 36.458 570.038 36.725C569.663 36.992 569.213 37.125 568.687 37.125ZM568.687 36.125C569.096 36.125 569.418 35.923 569.655 35.52C569.894 35.115 570.013 34.52 570.013 33.734C570.013 33.214 569.959 32.777 569.85 32.424C569.741 32.07 569.588 31.804 569.39 31.624C569.2 31.4461 568.948 31.349 568.687 31.353C568.28 31.353 567.958 31.555 567.721 31.96C567.485 32.363 567.366 32.954 567.363 33.734C567.361 34.256 567.413 34.694 567.52 35.05C567.629 35.406 567.782 35.675 567.98 35.856C568.178 36.035 568.414 36.125 568.687 36.125ZM571.792 35.785V34.843L574.569 30.454H575.355V31.797H574.876L573.006 34.76V34.81H576.883V35.785H571.792ZM574.914 37V35.498L574.927 35.076V30.454H576.046V37H574.914ZM757.836 37.125C757.31 37.125 756.858 36.992 756.481 36.725C756.106 36.457 755.817 36.07 755.615 35.565C755.414 35.058 755.314 34.447 755.314 33.734C755.316 33.02 755.418 32.413 755.618 31.912C755.82 31.409 756.109 31.026 756.484 30.762C756.861 30.497 757.312 30.365 757.836 30.365C758.36 30.365 758.811 30.497 759.188 30.761C759.565 31.026 759.854 31.409 760.054 31.911C760.256 32.415 760.358 33.022 760.358 33.734C760.358 34.45 760.256 35.061 760.054 35.568C759.854 36.073 759.565 36.458 759.188 36.725C758.813 36.992 758.362 37.125 757.836 37.125ZM757.836 36.125C758.245 36.125 758.568 35.923 758.804 35.52C759.043 35.115 759.162 34.52 759.162 33.734C759.162 33.214 759.108 32.777 758.999 32.424C758.891 32.07 758.737 31.804 758.539 31.624C758.349 31.446 758.097 31.3488 757.836 31.353C757.429 31.353 757.107 31.555 756.871 31.96C756.634 32.363 756.515 32.954 756.513 33.734C756.511 34.256 756.563 34.694 756.669 35.05C756.778 35.406 756.931 35.675 757.13 35.856C757.328 36.035 757.563 36.125 757.836 36.125ZM763.335 37.09C762.909 37.09 762.528 37.01 762.191 36.85C761.871 36.7016 761.594 36.4725 761.389 36.185C761.192 35.901 761.083 35.5655 761.075 35.22H762.226C762.234 35.348 762.269 35.4729 762.329 35.5864C762.389 35.6998 762.473 35.7992 762.574 35.878C762.785 36.047 763.039 36.131 763.335 36.131C763.552 36.1348 763.767 36.0795 763.955 35.971C764.135 35.8647 764.283 35.7112 764.383 35.527C764.488 35.337 764.539 35.121 764.537 34.877C764.543 34.6476 764.489 34.4207 764.38 34.219C764.278 34.0317 764.126 33.876 763.942 33.769C763.748 33.6559 763.527 33.5985 763.303 33.603C763.105 33.6009 762.909 33.6376 762.725 33.711C762.535 33.786 762.385 33.884 762.274 34.005L761.203 33.83L761.545 30.455H765.342V31.445H762.526L762.338 33.181H762.376C762.498 33.038 762.669 32.92 762.891 32.826C763.121 32.7282 763.369 32.6792 763.619 32.682C763.986 32.6739 764.348 32.7675 764.665 32.9524C764.982 33.1374 765.242 33.4065 765.416 33.73C765.595 34.056 765.684 34.43 765.684 34.85C765.684 35.282 765.584 35.667 765.384 36.006C765.186 36.3424 764.9 36.6178 764.556 36.802C764.18 36.9997 763.76 37.0988 763.335 37.09ZM946.766 37.125C946.239 37.125 945.788 36.992 945.411 36.725C945.036 36.457 944.747 36.07 944.544 35.565C944.344 35.058 944.244 34.447 944.244 33.734C944.246 33.02 944.347 32.413 944.548 31.912C944.75 31.409 945.039 31.026 945.414 30.762C945.791 30.497 946.241 30.365 946.766 30.365C947.29 30.365 947.74 30.497 948.118 30.761C948.495 31.026 948.783 31.409 948.984 31.911C949.186 32.415 949.287 33.022 949.287 33.734C949.287 34.45 949.186 35.061 948.984 35.568C948.783 36.073 948.495 36.458 948.118 36.725C947.743 36.992 947.292 37.125 946.766 37.125ZM946.766 36.125C947.175 36.125 947.498 35.923 947.734 35.52C947.973 35.115 948.092 34.52 948.092 33.734C948.092 33.214 948.038 32.777 947.929 32.424C947.82 32.07 947.667 31.804 947.469 31.624C947.279 31.4461 947.027 31.349 946.766 31.353C946.359 31.353 946.037 31.555 945.8 31.96C945.564 32.363 945.445 32.954 945.442 33.734C945.44 34.256 945.493 34.694 945.599 35.05C945.708 35.406 945.861 35.675 946.059 35.856C946.257 36.035 946.493 36.125 946.766 36.125ZM952.386 37.09C952.073 37.0876 951.763 37.0321 951.469 36.926C951.164 36.8132 950.889 36.6331 950.664 36.399C950.425 36.154 950.235 35.829 950.095 35.424C949.954 35.017 949.885 34.514 949.887 33.913C949.887 33.353 949.947 32.853 950.066 32.413C950.167 32.014 950.341 31.6372 950.58 31.302C950.804 30.997 951.074 30.765 951.389 30.605C951.707 30.445 952.061 30.365 952.453 30.365C952.865 30.365 953.229 30.446 953.546 30.608C953.866 30.77 954.124 30.991 954.32 31.273C954.516 31.552 954.637 31.867 954.684 32.219H953.518C953.467 31.9826 953.337 31.7706 953.15 31.618C952.967 31.467 952.735 31.391 952.453 31.391C951.999 31.391 951.65 31.588 951.405 31.982C951.162 32.376 951.04 32.918 951.037 33.606H951.082C951.187 33.418 951.322 33.257 951.488 33.123C951.839 32.848 952.273 32.6994 952.719 32.701C953.079 32.6953 953.434 32.7886 953.744 32.9708C954.055 33.153 954.309 33.417 954.48 33.734C954.659 34.054 954.747 34.42 954.745 34.834C954.753 35.24 954.651 35.6407 954.451 35.994C954.253 36.334 953.977 36.603 953.623 36.799C953.269 36.995 952.857 37.093 952.386 37.09ZM952.38 36.13C952.612 36.13 952.82 36.074 953.003 35.961C953.186 35.848 953.331 35.696 953.438 35.504C953.545 35.3062 953.599 35.0839 953.594 34.859C953.599 34.6373 953.546 34.4181 953.441 34.223C953.343 34.0371 953.196 33.8812 953.016 33.772C952.829 33.6596 952.614 33.6021 952.396 33.606C952.233 33.6043 952.07 33.6367 951.92 33.7011C951.77 33.7655 951.635 33.8604 951.523 33.98C951.294 34.2188 951.166 34.5369 951.165 34.868C951.167 35.096 951.221 35.306 951.325 35.498C951.43 35.69 951.573 35.843 951.757 35.958C951.94 36.073 952.148 36.13 952.38 36.13ZM1137.63 37.125C1137.1 37.125 1136.65 36.992 1136.27 36.725C1135.9 36.457 1135.61 36.07 1135.41 35.565C1135.2 35.058 1135.1 34.447 1135.1 33.734C1135.11 33.02 1135.21 32.413 1135.41 31.912C1135.61 31.409 1135.9 31.026 1136.27 30.762C1136.65 30.497 1137.1 30.365 1137.63 30.365C1138.15 30.365 1138.6 30.497 1138.98 30.761C1139.36 31.026 1139.64 31.409 1139.84 31.911C1140.05 32.415 1140.15 33.022 1140.15 33.734C1140.15 34.45 1140.05 35.061 1139.84 35.568C1139.64 36.073 1139.36 36.458 1138.98 36.725C1138.6 36.992 1138.15 37.125 1137.63 37.125ZM1137.63 36.125C1138.04 36.125 1138.36 35.923 1138.59 35.52C1138.83 35.115 1138.95 34.52 1138.95 33.734C1138.95 33.214 1138.9 32.777 1138.79 32.424C1138.68 32.07 1138.53 31.804 1138.33 31.624C1138.13 31.444 1137.9 31.353 1137.63 31.353C1137.22 31.353 1136.9 31.555 1136.66 31.96C1136.42 32.363 1136.31 32.954 1136.3 33.734C1136.3 34.256 1136.35 34.694 1136.46 35.05C1136.57 35.406 1136.72 35.675 1136.92 35.856C1137.12 36.035 1137.35 36.125 1137.63 36.125ZM1140.91 37L1143.7 31.49V31.445H1140.47V30.455H1144.92V31.468L1142.14 37H1140.91ZM1324.77 37.125C1324.25 37.125 1323.8 36.992 1323.42 36.725C1323.04 36.457 1322.76 36.07 1322.55 35.565C1322.35 35.058 1322.25 34.447 1322.25 33.734C1322.26 33.02 1322.36 32.413 1322.56 31.912C1322.76 31.409 1323.05 31.026 1323.42 30.762C1323.8 30.497 1324.25 30.365 1324.77 30.365C1325.3 30.365 1325.75 30.497 1326.13 30.761C1326.5 31.026 1326.79 31.409 1326.99 31.911C1327.2 32.415 1327.3 33.022 1327.3 33.734C1327.3 34.45 1327.2 35.061 1326.99 35.568C1326.79 36.073 1326.5 36.458 1326.13 36.725C1325.75 36.992 1325.3 37.125 1324.77 37.125ZM1324.77 36.125C1325.18 36.125 1325.51 35.923 1325.74 35.52C1325.98 35.115 1326.1 34.52 1326.1 33.734C1326.1 33.214 1326.05 32.777 1325.94 32.424C1325.83 32.07 1325.68 31.804 1325.48 31.624C1325.28 31.444 1325.05 31.353 1324.77 31.353C1324.37 31.353 1324.05 31.555 1323.81 31.96C1323.57 32.363 1323.45 32.954 1323.45 33.734C1323.45 34.256 1323.5 34.694 1323.61 35.05C1323.72 35.406 1323.87 35.675 1324.07 35.856C1324.27 36.035 1324.5 36.125 1324.77 36.125ZM1330.33 37.09C1329.85 37.09 1329.43 37.01 1329.06 36.85C1328.69 36.69 1328.41 36.472 1328.2 36.195C1327.99 35.915 1327.89 35.599 1327.89 35.245C1327.89 34.9855 1327.95 34.7293 1328.07 34.4975C1328.18 34.2657 1328.35 34.0649 1328.56 33.912C1328.77 33.757 1329 33.658 1329.26 33.615V33.571C1328.94 33.5037 1328.65 33.3208 1328.44 33.056C1328.24 32.7886 1328.13 32.4582 1328.13 32.12C1328.13 31.783 1328.22 31.483 1328.41 31.218C1328.6 30.954 1328.86 30.746 1329.19 30.595C1329.52 30.442 1329.9 30.365 1330.33 30.365C1330.74 30.365 1331.12 30.442 1331.45 30.595C1331.78 30.746 1332.04 30.955 1332.23 31.218C1332.42 31.483 1332.51 31.783 1332.51 32.12C1332.51 32.473 1332.41 32.786 1332.2 33.056C1331.99 33.325 1331.72 33.496 1331.39 33.571V33.615C1331.65 33.658 1331.88 33.757 1332.08 33.913C1332.29 34.066 1332.45 34.258 1332.57 34.488C1332.7 34.718 1332.76 34.971 1332.76 35.245C1332.76 35.599 1332.65 35.915 1332.44 36.195C1332.24 36.472 1331.95 36.69 1331.58 36.85C1331.22 37.01 1330.8 37.09 1330.33 37.09ZM1330.33 36.175C1330.57 36.175 1330.78 36.134 1330.96 36.051C1331.14 35.9765 1331.29 35.852 1331.39 35.693C1331.5 35.535 1331.55 35.3506 1331.54 35.163C1331.54 34.953 1331.48 34.769 1331.38 34.609C1331.28 34.4473 1331.13 34.3164 1330.95 34.229C1330.76 34.136 1330.55 34.0891 1330.33 34.092C1330.09 34.092 1329.88 34.137 1329.7 34.229C1329.53 34.3162 1329.38 34.447 1329.26 34.609C1329.16 34.769 1329.11 34.953 1329.11 35.162C1329.11 35.362 1329.16 35.539 1329.26 35.692C1329.36 35.844 1329.5 35.962 1329.68 36.048C1329.86 36.133 1330.08 36.175 1330.33 36.175ZM1330.33 33.194C1330.53 33.194 1330.7 33.154 1330.86 33.072C1331.02 32.9907 1331.14 32.8696 1331.23 32.7215C1331.32 32.5735 1331.37 32.4042 1331.36 32.232C1331.36 32.059 1331.32 31.889 1331.23 31.739C1331.15 31.5958 1331.02 31.4815 1330.86 31.41C1330.7 31.3282 1330.52 31.2877 1330.33 31.292C1330.12 31.292 1329.94 31.332 1329.78 31.41C1329.63 31.4817 1329.5 31.5964 1329.41 31.74C1329.33 31.8903 1329.29 32.0596 1329.29 32.231C1329.29 32.421 1329.33 32.588 1329.42 32.733C1329.51 32.876 1329.63 32.989 1329.78 33.073C1329.94 33.153 1330.12 33.194 1330.33 33.194ZM1513.76 37.125C1513.24 37.125 1512.78 36.992 1512.41 36.725C1512.03 36.457 1511.74 36.07 1511.54 35.565C1511.34 35.058 1511.24 34.447 1511.24 33.734C1511.24 33.02 1511.34 32.413 1511.54 31.912C1511.75 31.409 1512.03 31.026 1512.41 30.762C1512.79 30.497 1513.24 30.365 1513.76 30.365C1514.29 30.365 1514.74 30.497 1515.11 30.761C1515.49 31.026 1515.78 31.409 1515.98 31.911C1516.18 32.415 1516.28 33.022 1516.28 33.734C1516.28 34.45 1516.18 35.061 1515.98 35.568C1515.78 36.073 1515.49 36.458 1515.11 36.725C1514.74 36.992 1514.29 37.125 1513.76 37.125ZM1513.76 36.125C1514.17 36.125 1514.49 35.923 1514.73 35.52C1514.97 35.115 1515.09 34.52 1515.09 33.734C1515.09 33.214 1515.03 32.777 1514.92 32.424C1514.82 32.07 1514.66 31.804 1514.46 31.624C1514.28 31.445 1514.02 31.3476 1513.76 31.353C1513.35 31.353 1513.03 31.555 1512.8 31.96C1512.56 32.363 1512.44 32.954 1512.44 33.734C1512.44 34.256 1512.49 34.694 1512.6 35.05C1512.7 35.406 1512.86 35.675 1513.06 35.856C1513.25 36.035 1513.49 36.125 1513.76 36.125ZM1519.26 30.365C1519.57 30.367 1519.88 30.423 1520.17 30.531C1520.47 30.638 1520.74 30.813 1520.98 31.055C1521.22 31.296 1521.41 31.619 1521.55 32.024C1521.69 32.429 1521.76 32.929 1521.76 33.526C1521.77 34.0343 1521.71 34.5414 1521.58 35.034C1521.46 35.475 1521.29 35.848 1521.06 36.154C1520.84 36.458 1520.57 36.69 1520.25 36.85C1519.92 37.0135 1519.56 37.0958 1519.19 37.09C1518.78 37.09 1518.41 37.008 1518.09 36.847C1517.79 36.6926 1517.52 36.4641 1517.32 36.182C1517.12 35.901 1517 35.579 1516.96 35.217H1518.13C1518.19 35.477 1518.31 35.683 1518.49 35.837C1518.68 35.987 1518.91 36.064 1519.19 36.064C1519.64 36.064 1519.99 35.867 1520.24 35.472C1520.48 35.078 1520.61 34.531 1520.61 33.83H1520.56C1520.46 34.017 1520.32 34.179 1520.16 34.315C1519.99 34.45 1519.8 34.553 1519.59 34.625C1519.38 34.6979 1519.16 34.7347 1518.93 34.734C1518.54 34.734 1518.2 34.642 1517.89 34.459C1517.59 34.2776 1517.34 34.0172 1517.16 33.705C1516.99 33.3668 1516.9 32.9902 1516.9 32.609C1516.9 32.182 1516.99 31.8 1517.19 31.461C1517.39 31.121 1517.66 30.851 1518.02 30.656C1518.37 30.458 1518.78 30.36 1519.26 30.365ZM1519.26 31.324C1519.03 31.324 1518.82 31.38 1518.64 31.494C1518.45 31.604 1518.31 31.755 1518.2 31.947C1518.1 32.137 1518.05 32.349 1518.05 32.583C1518.05 32.815 1518.1 33.026 1518.2 33.216C1518.31 33.4055 1518.46 33.5634 1518.64 33.6723C1518.83 33.7812 1519.04 33.8368 1519.25 33.833C1519.42 33.8341 1519.58 33.8015 1519.73 33.7371C1519.88 33.6728 1520.01 33.578 1520.12 33.459C1520.23 33.339 1520.32 33.204 1520.38 33.053C1520.45 32.902 1520.48 32.742 1520.48 32.573C1520.49 32.3568 1520.43 32.1439 1520.33 31.9551C1520.22 31.7663 1520.07 31.6081 1519.88 31.496C1519.7 31.3787 1519.48 31.3188 1519.26 31.324ZM1703.76 30.454V37H1702.57V31.608H1702.54L1701.01 32.586V31.5L1702.63 30.454H1703.76ZM1707.48 37.124C1706.96 37.124 1706.5 36.991 1706.13 36.725C1705.75 36.457 1705.46 36.07 1705.26 35.565C1705.06 35.058 1704.96 34.447 1704.96 33.734C1704.96 33.02 1705.06 32.413 1705.26 31.912C1705.47 31.409 1705.75 31.026 1706.13 30.762C1706.51 30.497 1706.96 30.365 1707.48 30.365C1708.01 30.365 1708.46 30.497 1708.83 30.761C1709.21 31.026 1709.5 31.409 1709.7 31.911C1709.9 32.415 1710 33.022 1710 33.734C1710 34.45 1709.9 35.061 1709.7 35.568C1709.5 36.073 1709.21 36.458 1708.83 36.725C1708.46 36.992 1708.01 37.124 1707.48 37.124ZM1707.48 36.124C1707.89 36.124 1708.21 35.923 1708.45 35.52C1708.69 35.115 1708.81 34.52 1708.81 33.734C1708.81 33.214 1708.75 32.777 1708.65 32.424C1708.54 32.07 1708.38 31.804 1708.18 31.624C1708 31.445 1707.74 31.3476 1707.48 31.353C1707.07 31.353 1706.75 31.555 1706.52 31.96C1706.28 32.363 1706.16 32.954 1706.16 33.734C1706.16 34.256 1706.21 34.694 1706.32 35.05C1706.42 35.406 1706.58 35.675 1706.78 35.856C1706.97 36.035 1707.21 36.124 1707.48 36.124ZM1894.1 30.454V37H1892.91V31.608H1892.88L1891.34 32.586V31.5L1892.97 30.454H1894.1ZM1898.06 30.454V37H1896.88V31.608H1896.84L1895.31 32.586V31.5L1896.94 30.454H1898.06ZM2081.97 30.454V37H2080.78V31.608H2080.74L2079.21 32.586V31.5L2080.84 30.454H2081.97ZM2083.27 37V36.144L2085.54 33.916C2085.76 33.696 2085.94 33.501 2086.08 33.331C2086.23 33.161 2086.34 32.995 2086.41 32.836C2086.48 32.676 2086.52 32.506 2086.52 32.324C2086.53 32.1377 2086.48 31.9541 2086.38 31.794C2086.29 31.6444 2086.15 31.5245 2085.99 31.448C2085.82 31.3646 2085.63 31.3235 2085.43 31.328C2085.22 31.328 2085.03 31.372 2084.87 31.461C2084.71 31.5438 2084.58 31.6743 2084.49 31.835C2084.4 31.997 2084.36 32.19 2084.36 32.414H2083.23C2083.23 31.998 2083.33 31.637 2083.51 31.33C2083.7 31.023 2083.97 30.786 2084.3 30.618C2084.63 30.449 2085.02 30.365 2085.45 30.365C2085.89 30.365 2086.27 30.447 2086.61 30.611C2086.94 30.775 2087.2 31 2087.38 31.285C2087.56 31.571 2087.66 31.897 2087.66 32.264C2087.66 32.508 2087.61 32.749 2087.52 32.986C2087.42 33.222 2087.26 33.484 2087.02 33.772C2086.79 34.06 2086.46 34.408 2086.03 34.817L2084.91 35.965V36.009H2087.76V37H2083.27ZM2270.83 30.454V37H2269.64V31.608H2269.61L2268.08 32.586V31.5L2269.7 30.454H2270.83ZM2274.48 37.09C2274.02 37.09 2273.61 37.01 2273.25 36.853C2272.92 36.7096 2272.63 36.4829 2272.41 36.195C2272.2 35.913 2272.09 35.5717 2272.08 35.22H2273.28C2273.29 35.397 2273.35 35.551 2273.46 35.683C2273.57 35.813 2273.71 35.914 2273.88 35.987C2274.06 36.059 2274.26 36.095 2274.48 36.095C2274.71 36.095 2274.92 36.055 2275.1 35.975C2275.27 35.898 2275.42 35.779 2275.53 35.629C2275.63 35.479 2275.69 35.3017 2275.68 35.121C2275.69 34.9336 2275.63 34.7496 2275.52 34.597C2275.41 34.4365 2275.26 34.3129 2275.07 34.242C2274.85 34.1513 2274.61 34.1077 2274.36 34.114H2273.78V33.2H2274.36C2274.59 33.2 2274.79 33.16 2274.96 33.082C2275.13 33.002 2275.27 32.892 2275.36 32.749C2275.46 32.604 2275.51 32.437 2275.51 32.247C2275.52 32.0769 2275.47 31.9091 2275.38 31.765C2275.3 31.6254 2275.18 31.5131 2275.03 31.442C2274.87 31.3612 2274.68 31.3218 2274.49 31.327C2274.29 31.327 2274.11 31.363 2273.94 31.436C2273.78 31.501 2273.64 31.608 2273.53 31.746C2273.43 31.8804 2273.37 32.0468 2273.36 32.219H2272.22C2272.23 31.852 2272.33 31.53 2272.54 31.254C2272.74 30.974 2273.01 30.757 2273.35 30.602C2273.69 30.444 2274.08 30.365 2274.5 30.365C2274.94 30.365 2275.32 30.447 2275.64 30.611C2275.96 30.773 2276.21 30.991 2276.39 31.266C2276.57 31.541 2276.66 31.845 2276.66 32.177C2276.66 32.546 2276.55 32.855 2276.33 33.104C2276.11 33.354 2275.83 33.516 2275.47 33.593V33.644C2275.93 33.708 2276.29 33.879 2276.53 34.156C2276.78 34.43 2276.9 34.772 2276.9 35.182C2276.9 35.548 2276.79 35.876 2276.58 36.166C2276.38 36.454 2276.09 36.679 2275.73 36.843C2275.37 37.007 2274.95 37.09 2274.48 37.09Z" fill="#585858"></path></svg>