<svg width="175" height="78" viewBox="0 0 175 78" fill="none" xmlns="http://www.w3.org/2000/svg">
<path d="M21.0631 63.4631C14.4414 63.4631 9.27908 61.6579 5.56745 58.0433C1.85582 54.4286 0 49.3785 0 42.8974V33.8194C0 27.0251 1.85582 21.7445 5.56745 17.9776C9.27908 14.2107 14.4414 12.3272 21.0631 12.3272C27.6848 12.3272 32.8471 14.1324 36.5587 17.747C40.2703 21.3617 42.1262 26.4074 42.1262 32.8929V41.9709C42.1262 48.7043 40.2703 53.9675 36.5587 57.7649C32.8471 61.5622 27.6804 63.4631 21.0631 63.4631ZM21.0631 54.1067C27.7458 54.1067 31.0827 49.9092 31.0827 41.5055V34.2805C31.0827 25.8811 27.7414 21.6792 21.0631 21.6792C14.3848 21.6792 11.0434 25.8811 11.0434 34.2805V41.5055C11.0434 49.9049 14.3848 54.1067 21.0631 54.1067Z" fill="#F5F5F5"/>
<path d="M66.3433 63.4631C59.042 63.4631 53.6923 61.858 50.29 58.6479C47.8766 56.299 46.6742 53.3977 46.6742 49.9397C46.6742 48.5825 47.5106 47.8996 49.1791 47.8996H54.9339C56.4194 47.8996 57.2515 48.4868 57.4388 49.6613C57.7481 51.5143 58.5846 52.8584 59.9437 53.6935C61.3029 54.5287 63.3461 54.9419 66.0688 54.9419C68.9745 54.9419 71.0481 54.5113 72.2854 53.6457C73.5226 52.7801 74.1412 51.3925 74.1412 49.4786C74.1412 48.1824 73.9103 47.1297 73.4485 46.3294C72.9824 45.529 72.1329 44.833 70.8957 44.2458C69.6585 43.6586 67.8636 43.0583 65.5155 42.4407L59.3905 40.866C51.3486 38.7651 47.3277 34.5067 47.3277 28.0821V26.7859C47.3277 22.2143 48.9526 18.6648 52.1981 16.1333C55.4436 13.6017 59.9742 12.3359 65.79 12.3359C72.7776 12.3359 77.9138 13.8801 81.1941 16.9684C83.4812 19.1912 84.627 21.9707 84.627 25.3069C84.627 26.1725 84.4266 26.7598 84.0258 27.0686C83.6206 27.3774 82.8321 27.5297 81.6603 27.5297H76.8378C75.7835 27.5297 75.0734 27.4079 74.7031 27.1599C74.3329 26.912 74.0845 26.4205 73.9626 25.6767C73.4659 22.3404 70.5297 20.6744 65.1496 20.6744C62.8625 20.6744 61.0677 21.1355 59.7695 22.0664C58.4713 22.9929 57.8222 24.3195 57.8222 26.0507C57.8222 27.5949 58.3798 28.7998 59.4907 29.6654C60.6059 30.531 62.6447 31.3662 65.6157 32.1665L73.5008 34.2066C81.168 36.2466 85.006 40.6312 85.006 47.3646V49.2176C85.006 53.7283 83.368 57.2299 80.0876 59.731C76.8073 62.2321 72.2287 63.4848 66.3563 63.4848L66.3433 63.4631Z" fill="#F5F5F5"/>
<path d="M114.128 62.1668H108.931C103.486 62.1668 99.7436 60.8576 97.7048 58.2303C95.6617 55.6074 94.6423 52.071 94.6423 47.6212V22.7014H89.7239C88.796 22.7014 88.1774 22.5318 87.8681 22.1925C87.5588 21.8532 87.402 21.1573 87.402 20.109V16.2159C87.402 15.1676 87.5545 14.4717 87.8681 14.1324C88.1774 13.7931 88.796 13.6235 89.7239 13.6235H94.6423V2.68815C94.6423 1.57462 94.8427 0.852554 95.2435 0.508923C95.6442 0.169641 96.4327 0 97.609 0H102.71C103.887 0 104.675 0.169641 105.076 0.508923C105.477 0.848204 105.681 1.57462 105.681 2.68815V13.6191H114.124C115.052 13.6191 115.671 13.7888 115.98 14.128C116.289 14.4673 116.446 15.1633 116.446 16.2116V20.1046C116.446 21.1573 116.289 21.8489 115.98 22.1882C115.671 22.5274 115.052 22.6971 114.124 22.6971H105.681V45.9509C105.681 48.2345 106.065 49.9223 106.84 51.001C107.611 52.0841 108.927 52.6235 110.783 52.6235H114.124C115.052 52.6235 115.671 52.7931 115.98 53.1324C116.289 53.4717 116.446 54.1676 116.446 55.2159V59.57C116.446 60.6227 116.307 61.3143 116.028 61.6536C115.749 61.9929 115.113 62.1625 114.124 62.1625L114.128 62.1668Z" fill="#F5F5F5"/>
<path d="M123.682 68.4653H124.422C126.527 68.4653 128.134 68.2783 129.249 67.9085C130.365 67.5388 131.275 66.8559 131.985 65.8685C132.695 64.8811 133.423 63.4283 134.168 61.5144L134.908 59.7527L117.744 16.4856C117.561 15.9941 117.465 15.5896 117.465 15.2807C117.465 14.1672 118.206 13.6148 119.691 13.6148H125.908C126.775 13.6148 127.424 13.7844 127.855 14.1237C128.287 14.463 128.692 15.1285 129.062 16.1159L140.101 46.1336L150.121 15.9288C150.43 15.0023 150.8 14.3847 151.236 14.0758C151.667 13.767 152.351 13.6148 153.279 13.6148H159.404C160.89 13.6148 161.63 14.1411 161.63 15.1894C161.63 15.4982 161.539 15.8984 161.351 16.3943L144.466 62.902C143.042 66.8559 141.591 69.9268 140.105 72.1191C138.62 74.3114 136.795 75.8382 134.629 76.7038C132.464 77.5694 129.559 78 125.908 78H123.682C122.754 78 122.135 77.8304 121.826 77.4911C121.517 77.1518 121.36 76.4558 121.36 75.4075V71.0534C121.36 70.0008 121.512 69.3092 121.826 68.9699C122.135 68.6306 122.754 68.461 123.682 68.461V68.4653Z" fill="#F5F5F5"/>
<path d="M167.481 47.4342C169.768 47.4342 171.593 48.0388 172.957 49.2393C174.316 50.4442 175 52.0971 175 54.1981V56.4208C175 58.5217 174.316 60.1747 172.957 61.3795C171.593 62.5844 169.772 63.1847 167.481 63.1847C165.189 63.1847 163.368 62.5844 162.005 61.3795C160.641 60.1747 159.962 58.5217 159.962 56.4208V54.1981C159.962 52.0971 160.641 50.4442 162.005 49.2393C163.364 48.0345 165.189 47.4342 167.481 47.4342Z" fill="#F5F5F5"/>
</svg>
