<svg width="580" height="580" viewBox="0 0 580 580" fill="none" xmlns="http://www.w3.org/2000/svg">
<path d="M290.004 534.577C425.074 534.577 534.57 425.081 534.57 290.011C534.57 154.941 425.074 45.4448 290.004 45.4448C154.934 45.4448 45.4377 154.941 45.4377 290.011C45.4377 425.081 154.934 534.577 290.004 534.577Z" fill="#FECA76"/>
<path d="M413.945 27.7601C408.334 25.1032 401.893 29.2906 401.893 35.4759V267.438C401.893 270.01 405.039 271.242 406.782 269.351C409.545 266.375 423.999 250.433 439.091 233.641L465.235 204.394C465.766 203.799 466.531 203.458 467.339 203.458H499.796C502.262 203.458 503.537 206.392 501.858 208.198L469.486 242.994C452.312 261.444 437.454 277.725 433.245 282.827C432.416 283.847 432.416 285.271 433.203 286.313C437.411 291.86 452.822 308.737 471.399 328.016C493.292 350.972 511.785 370.527 511.997 371.59C512.422 372.653 504.345 373.503 493.717 373.503H475.565C474.8 373.503 474.056 373.184 473.525 372.631L453.523 351.822C442.045 339.707 425.678 322.702 417.389 313.987L406.697 303.019C404.933 301.213 401.872 302.467 401.872 304.975V370.676C401.872 372.227 400.618 373.482 399.066 373.482H372.795C371.243 373.482 369.989 372.227 369.989 370.676V17.685C369.989 13.7953 367.353 10.4156 363.591 9.43787C339.933 3.23125 315.107 -0.0421022 289.515 0.000408861C128.398 0.276731 -2.49336 133.549 0.036053 294.645C1.05632 359.58 23.4172 419.33 60.4231 467.176C62.8887 470.364 68.0113 468.579 68.0113 464.54L68.1813 346.274V208.368C68.1813 206.817 69.4354 205.563 70.9871 205.563H186.511C188.063 205.563 189.317 206.817 189.317 208.368V232.494C189.317 234.045 188.063 235.299 186.511 235.299H102.87C101.319 235.299 100.065 236.553 100.065 238.105V279.234C100.065 280.786 101.319 282.04 102.87 282.04H182.26C183.811 282.04 185.066 283.294 185.066 284.846V308.971C185.066 310.523 183.811 311.777 182.26 311.777H102.87C101.319 311.777 100.065 313.031 100.065 314.582V504.161C100.065 507.285 101.425 510.261 103.806 512.259C154.16 554.473 219.053 579.894 289.898 579.915C448.103 579.979 578.123 451.617 579.972 293.412C581.354 176.124 513.081 74.6286 413.945 27.6751V27.7601ZM480.73 180.906H475.034V196.168H471.442V180.906H465.745V177.952H480.73V180.906ZM502.73 196.168H499.074V182.713L494.334 196.168H490.742L485.895 182.713V196.168H482.303V177.973H487.936L492.676 191.619L497.225 177.973H502.73V196.168ZM348.755 370.463C348.755 371.93 347.628 373.141 346.183 373.269L338.977 373.885C327.499 374.736 333.451 380.9 281.587 314.157L246.303 268.607C244.666 266.502 241.308 267.629 241.265 270.286L240.351 318.408C239.841 343.001 239.055 363.917 238.332 371.165C238.183 372.653 236.908 373.758 235.399 373.694C232.55 373.567 227.619 373.46 222.284 373.46H211.274C209.722 373.46 208.468 372.206 208.468 370.655V208.368C208.468 206.817 209.722 205.563 211.274 205.563H232.38C233.252 205.563 234.06 205.967 234.591 206.626L310.856 303.062C312.493 305.145 315.851 303.997 315.872 301.34L316.404 257.426L316.807 208.347C316.807 206.796 318.083 205.563 319.613 205.563H345.885C347.437 205.563 348.691 206.817 348.691 208.368V370.463H348.755Z" fill="#2E2E2E"/>
<path d="M465.851 180.906H471.526V196.168H475.118V180.906H480.794V177.952H465.851V180.906ZM497.246 177.952L492.697 191.598L487.978 177.952H482.367V196.147H485.959V182.692L490.805 196.147H494.397L499.116 182.692V196.147H502.772V177.952H497.246Z" fill="#FECA76"/>
</svg>
