<svg xmlns="http://www.w3.org/2000/svg" viewBox="0 0 721 260" fill="none"><path d="M699.092 2.88889H45.0722C34.5722 2.88889 26.0601 11.3829 26.0601 21.8607V238.139C26.0601 248.617 34.5722 257.111 45.0722 257.111H699.092C709.591 257.111 718.104 248.617 718.104 238.139V21.8607C718.104 11.3829 709.591 2.88889 699.092 2.88889Z" stroke="#FECA74" stroke-width="2"></path><path d="M315.618 156.812C315.618 129.241 293.58 106.889 266.393 106.889C239.207 106.889 217.168 129.241 217.168 156.812V158.077C217.168 185.648 239.207 208 266.393 208C293.58 208 315.618 185.648 315.618 158.077V156.812Z" fill="#FECA74"></path><path d="M315.618 156.812C315.618 129.241 293.58 106.889 266.393 106.889C239.207 106.889 217.168 129.241 217.168 156.812V158.077C217.168 185.648 239.207 208 266.393 208C293.58 208 315.618 185.648 315.618 158.077V156.812Z" stroke="#FECA74" stroke-width="2"></path><path d="M267.841 167.556C275.038 167.556 280.871 161.735 280.871 154.556C280.871 147.376 275.038 141.556 267.841 141.556C260.645 141.556 254.811 147.376 254.811 154.556C254.811 161.735 260.645 167.556 267.841 167.556Z" fill="#464D51"></path><path d="M397.334 37.5555H396.055C350.032 37.5555 312.723 74.4175 312.723 119.889C312.723 165.36 350.032 202.222 396.055 202.222H397.334C443.357 202.222 480.666 165.36 480.666 119.889C480.666 74.4175 443.357 37.5555 397.334 37.5555Z" stroke="#FECA74" stroke-width="2"></path><path d="M547.265 156C547.265 119.304 516.801 89.5555 479.219 89.5555C441.637 89.5555 411.173 119.304 411.173 156C411.173 192.696 441.637 222.444 479.219 222.444C516.801 222.444 547.265 192.696 547.265 156Z" fill="#464D51"></path><path d="M547.265 156C547.265 119.304 516.801 89.5555 479.219 89.5555C441.637 89.5555 411.173 119.304 411.173 156C411.173 192.696 441.637 222.444 479.219 222.444C516.801 222.444 547.265 192.696 547.265 156Z" stroke="#FECA74" stroke-width="2"></path><path d="M359.052 60.6667C359.052 46.3071 347.386 34.6667 332.992 34.6667C318.598 34.6667 306.932 46.3071 306.932 60.6667C306.932 75.0262 318.598 86.6667 332.992 86.6667C347.386 86.6667 359.052 75.0262 359.052 60.6667Z" fill="#FECA74"></path><path d="M359.052 60.6667C359.052 46.3071 347.386 34.6667 332.992 34.6667C318.598 34.6667 306.932 46.3071 306.932 60.6667C306.932 75.0262 318.598 86.6667 332.992 86.6667C347.386 86.6667 359.052 75.0262 359.052 60.6667Z" stroke="#FECA74"></path><path d="M344.531 55.9737C345.122 57.4204 345.449 59.0041 345.449 60.6667H347.47C347.47 58.7386 347.091 56.8964 346.402 55.2122L344.531 55.9737ZM345.449 60.6667C345.449 61.5498 345.359 62.4104 345.182 63.2398L347.16 63.6547C347.363 62.6898 347.47 61.6902 347.47 60.6667H345.449ZM345.182 63.2398C344.169 68.0382 340.382 71.8195 335.572 72.8292L335.986 74.8014C341.58 73.6271 345.985 69.2351 347.16 63.6547L345.182 63.2398ZM335.572 72.8292C334.741 73.0037 333.878 73.0955 332.992 73.0955V75.1111C334.017 75.1111 335.019 75.0045 335.986 74.8014L335.572 72.8292ZM332.992 73.0955C332.106 73.0955 331.243 73.0037 330.412 72.8292L329.998 74.8014C330.965 75.0045 331.967 75.1111 332.992 75.1111V73.0955ZM320.535 60.6667C320.535 59.003 320.862 57.4178 321.453 55.9702L319.583 55.2081C318.893 56.8935 318.514 58.7372 318.514 60.6667H320.535ZM330.412 72.8292C325.603 71.8195 321.815 68.0382 320.802 63.2398L318.824 63.6547C320 69.2351 324.404 73.6271 329.998 74.8014L330.412 72.8292ZM320.802 63.2398C320.625 62.4104 320.535 61.5498 320.535 60.6667H318.514C318.514 61.6902 318.621 62.6898 318.824 63.6547L320.802 63.2398ZM321.453 55.9702C322.997 52.2022 326.341 49.3593 330.412 48.5042L329.998 46.5319C325.258 47.5269 321.375 50.8309 319.583 55.2081L321.453 55.9702ZM330.412 48.5042C331.243 48.3297 332.106 48.2378 332.992 48.2378V46.2222C331.967 46.2222 330.965 46.3288 329.998 46.5319L330.412 48.5042ZM332.992 48.2378C333.878 48.2378 334.741 48.3297 335.572 48.5042L335.986 46.5319C335.019 46.3288 334.017 46.2222 332.992 46.2222V48.2378ZM335.572 48.5042C339.646 49.3596 342.991 52.2043 344.531 55.9737L346.402 55.2122C344.612 50.8329 340.729 47.5271 335.986 46.5319L335.572 48.5042ZM334.816 47.8244C335.19 48.9863 336.562 53.4551 337.127 57.5614L339.131 57.2878C338.54 52.999 337.118 48.3909 336.742 47.2117L334.816 47.8244ZM337.127 57.5614C337.278 58.6618 337.37 59.7185 337.37 60.6667H339.388C339.388 59.5992 339.287 58.4463 339.131 57.2878L337.127 57.5614ZM345.064 54.6734C343.587 55.1206 340.81 55.9061 337.946 56.4336L338.311 58.4154C341.282 57.8685 344.14 57.059 345.652 56.602L345.064 54.6734ZM337.946 56.4336C336.209 56.7534 334.475 56.9715 332.992 56.9715V58.9871C334.648 58.9871 336.519 58.7458 338.311 58.4154L337.946 56.4336ZM337.37 60.6667C337.37 62.0715 337.17 63.7061 336.875 65.3559L338.864 65.7107C339.168 64.0033 339.388 62.2385 339.388 60.6667H337.37ZM336.875 65.3559C336.226 68.9719 335.138 72.5016 334.816 73.5089L336.742 74.1217C337.072 73.088 338.193 69.4584 338.864 65.7107L336.875 65.3559ZM345.866 62.4872C344.855 62.8085 341.317 63.8947 337.692 64.5413L338.048 66.5253C341.803 65.8551 345.443 64.7371 346.48 64.4072L345.866 62.4872ZM337.692 64.5413C336.038 64.8362 334.399 65.0335 332.992 65.0335V67.0491C334.567 67.0491 336.336 66.8307 338.048 66.5253L337.692 64.5413ZM332.992 65.0335C331.585 65.0335 329.946 64.8362 328.293 64.5413L327.936 66.5253C329.648 66.8307 331.417 67.0491 332.992 67.0491V65.0335ZM328.293 64.5413C324.667 63.8947 321.129 62.8085 320.118 62.4872L319.504 64.4072C320.541 64.7371 324.181 65.8551 327.936 66.5253L328.293 64.5413ZM326.596 60.6667C326.596 62.2385 326.816 64.0033 327.12 65.7107L329.109 65.3559C328.814 63.7061 328.614 62.0715 328.614 60.6667H326.596ZM327.12 65.7107C327.792 69.4584 328.912 73.088 329.242 74.1217L331.168 73.5089C330.846 72.5016 329.758 68.9719 329.109 65.3559L327.12 65.7107ZM329.242 47.2117C328.866 48.3909 327.444 52.999 326.853 57.2878L328.857 57.5614C329.422 53.4551 330.794 48.9863 331.168 47.8244L329.242 47.2117ZM326.853 57.2878C326.697 58.4463 326.596 59.5992 326.596 60.6667H328.614C328.614 59.7185 328.707 58.6618 328.857 57.5614L326.853 57.2878ZM332.992 56.9715C331.51 56.9715 329.775 56.7534 328.038 56.4336L327.673 58.4154C329.465 58.7458 331.336 58.9871 332.992 58.9871V56.9715ZM328.038 56.4336C325.174 55.9058 322.397 55.12 320.92 54.6728L320.333 56.6014C321.841 57.0585 324.702 57.8682 327.673 58.4154L328.038 56.4336ZM345 54.6985C345.017 54.6893 345.041 54.6803 345.064 54.6734L345.652 56.602C345.75 56.572 345.843 56.5333 345.932 56.4873L345 54.6985ZM319.991 56.4489C320.098 56.5127 320.211 56.5645 320.333 56.6014L320.92 54.6728C320.967 54.687 321.007 54.7069 321.045 54.7294L319.991 56.4489Z" fill="#464D51"></path><path d="M673.513 72.2222H617.917C607.682 72.2222 599.386 80.5081 599.386 90.729V172.16C599.386 182.381 607.682 190.667 617.917 190.667H673.513C683.749 190.667 692.044 182.381 692.044 172.16V90.729C692.044 80.5081 683.749 72.2222 673.513 72.2222Z" stroke="#FECA74" stroke-width="2"></path><path d="M668.019 150.222H626.306C617.833 150.222 610.968 156.689 610.968 164.667C610.968 172.644 617.833 179.111 626.306 179.111H668.019C676.492 179.111 683.357 172.644 683.357 164.667C683.357 156.689 676.492 150.222 668.019 150.222Z" fill="#FECA74" stroke="#FECA74" stroke-width="2"></path><path d="M156.738 178.071L159.903 184.498C160.198 185.097 161.084 184.982 161.216 184.328L165.034 165.507C165.155 164.904 164.496 164.448 163.974 164.777L148.002 174.842C147.466 175.179 147.619 175.998 148.24 176.121L156.246 177.694C156.46 177.736 156.642 177.876 156.738 178.071Z" fill="#FECA74" stroke="#FECA74" stroke-width="1.16245"></path><path d="M100.092 184.889H140.242C144.347 184.889 147.675 188.779 147.675 193.578V199.311C147.675 204.11 144.347 208 140.242 208H100.092C95.9866 208 92.6587 204.11 92.6587 199.311V193.578C92.6587 188.779 95.9866 184.889 100.092 184.889Z" stroke="#FECA74" stroke-width="2"></path><path d="M173.735 52H251.162C259.574 52 266.394 59.0214 266.394 67.6826V106.889" stroke="#FECA74" stroke-width="2" stroke-linecap="round"></path><path d="M547.265 161.778H599.386" stroke="#FECA74" stroke-width="2" stroke-linecap="round"></path><path d="M418.412 170.444C432.004 170.444 443.024 182.085 443.024 196.444C443.024 210.804 432.004 222.444 418.412 222.444C404.817 222.444 393.799 210.804 393.799 196.444C393.799 182.085 404.817 170.444 418.412 170.444Z" fill="#464D51"></path><path d="M415.722 205.455C415.722 206.177 416.278 206.762 416.964 206.762C417.65 206.762 418.206 206.177 418.206 205.455H415.722ZM406.155 191.989C405.671 192.501 405.674 193.33 406.164 193.837C406.65 194.345 407.435 194.341 407.918 193.829L406.155 191.989ZM426.01 193.829C426.493 194.341 427.278 194.345 427.765 193.837C428.251 193.33 428.257 192.501 427.773 191.989L426.01 193.829ZM416.964 170.169C429.985 170.169 440.543 181.287 440.543 195H443.024C443.024 179.843 431.358 167.556 416.964 167.556V170.169ZM440.543 195C440.543 208.714 429.985 219.831 416.964 219.831V222.444C431.358 222.444 443.024 210.157 443.024 195H440.543ZM416.964 219.831C403.943 219.831 393.385 208.714 393.385 195H390.904C390.904 210.157 402.57 222.444 416.964 222.444V219.831ZM393.385 195C393.385 181.287 403.943 170.169 416.964 170.169V167.556C402.57 167.556 390.904 179.843 390.904 195H393.385ZM418.206 205.455V186.636H415.722V205.455H418.206ZM407.918 193.829L411.387 190.142L409.624 188.302L406.155 191.989L407.918 193.829ZM422.541 190.142L426.01 193.829L427.773 191.989L424.304 188.302L422.541 190.142ZM411.387 190.142C412.792 188.651 413.77 187.612 414.604 186.906C415.421 186.216 415.974 185.954 416.498 185.883L416.185 183.29C415.021 183.446 414.042 184.031 413.052 184.868C412.082 185.689 410.988 186.854 409.624 188.302L411.387 190.142ZM424.304 188.302C422.941 186.854 421.846 185.689 420.876 184.868C419.886 184.031 418.907 183.446 417.743 183.29L417.427 185.883C417.951 185.954 418.507 186.216 419.321 186.906C420.155 187.612 421.137 188.651 422.541 190.142L424.304 188.302ZM416.498 185.883C416.651 185.862 416.808 185.852 416.964 185.852V183.238C416.703 183.238 416.443 183.255 416.185 183.29L416.498 185.883ZM416.964 185.852C417.12 185.852 417.274 185.862 417.427 185.883L417.743 183.29C417.485 183.255 417.225 183.238 416.964 183.238V185.852ZM418.206 186.636V184.545H415.722V186.636H418.206Z" fill="#FECA74"></path><path d="M471.98 112.667C457.586 112.667 445.92 101.026 445.92 86.6667C445.92 72.3071 457.586 60.6667 471.98 60.6667C486.374 60.6667 498.04 72.3071 498.04 86.6667C498.04 101.026 486.374 112.667 471.98 112.667Z" fill="#464D51"></path><path d="M474.737 77.6562C474.737 76.9343 474.152 76.3493 473.428 76.3493C472.704 76.3493 472.119 76.9343 472.119 77.6562H474.737ZM484.837 91.1219C485.346 90.6094 485.343 89.782 484.831 89.2739C484.315 88.7657 483.487 88.7695 482.978 89.2823L484.837 91.1219ZM463.878 89.2823C463.369 88.7695 462.541 88.7657 462.025 89.2739C461.513 89.782 461.51 90.6094 462.019 91.1219L463.878 89.2823ZM473.428 112.942C459.683 112.942 448.54 101.825 448.54 88.1111H445.92C445.92 103.268 458.235 115.556 473.428 115.556V112.942ZM448.54 88.1111C448.54 74.3975 459.683 63.2805 473.428 63.2805V60.6667C458.235 60.6667 445.92 72.954 445.92 88.1111H448.54ZM473.428 63.2805C487.173 63.2805 498.315 74.3975 498.315 88.1111H500.936C500.936 72.954 488.621 60.6667 473.428 60.6667V63.2805ZM498.315 88.1111C498.315 101.825 487.173 112.942 473.428 112.942V115.556C488.621 115.556 500.936 103.268 500.936 88.1111H498.315ZM472.119 77.6562V96.475H474.737V77.6562H472.119ZM482.978 89.2823L479.315 92.9685L481.177 94.8084L484.837 91.1219L482.978 89.2823ZM467.541 92.9685L463.878 89.2823L462.019 91.1219L465.679 94.8084L467.541 92.9685ZM479.315 92.9685C477.832 94.4603 476.798 95.4991 475.918 96.2052C475.055 96.8945 474.47 97.1579 473.92 97.2281L474.25 99.8209C475.478 99.6649 476.512 99.0802 477.557 98.243C478.582 97.4226 479.737 96.2566 481.177 94.8084L479.315 92.9685ZM465.679 94.8084C467.118 96.2566 468.274 97.4226 469.299 98.243C470.344 99.0802 471.378 99.6649 472.606 99.8209L472.936 97.2281C472.386 97.1579 471.801 96.8945 470.938 96.2052C470.057 95.4991 469.024 94.4603 467.541 92.9685L465.679 94.8084ZM473.92 97.2281C473.755 97.2489 473.593 97.2593 473.428 97.2593V99.8729C473.703 99.8729 473.978 99.8556 474.25 99.8209L473.92 97.2281ZM473.428 97.2593C473.263 97.2593 473.101 97.2489 472.936 97.2281L472.606 99.8209C472.878 99.8556 473.153 99.8729 473.428 99.8729V97.2593ZM472.119 96.475V98.566H474.737V96.475H472.119Z" fill="#FECA74"></path><path d="M154.753 28.8889H21.8777C11.3941 28.8889 2.89551 37.3767 2.89551 47.8472V131.264C2.89551 141.734 11.3941 150.222 21.8777 150.222H154.753C165.236 150.222 173.735 141.734 173.735 131.264V47.8472C173.735 37.3767 165.236 28.8889 154.753 28.8889Z" fill="#464D51" stroke="#FECA74" stroke-width="2"></path><path d="M143.173 78H30.5619C20.0799 78 11.5825 86.3691 11.5825 96.6928V122.863C11.5825 133.186 20.0799 141.556 30.5619 141.556H143.173C153.655 141.556 162.153 133.186 162.153 122.863V96.6928C162.153 86.3691 153.655 78 143.173 78Z" fill="#464D51" stroke="#FECA74" stroke-width="2"></path><path d="M156.375 52H138.974C137.383 52 136.092 53.2934 136.092 54.8889C136.092 56.4844 137.383 57.7778 138.974 57.7778H156.375C157.967 57.7778 159.257 56.4844 159.257 54.8889C159.257 53.2934 157.967 52 156.375 52Z" fill="#FECA74"></path></svg>