<svg xmlns="http://www.w3.org/2000/svg" viewBox="0 0 689 260" fill="none"><path d="M442.326 2.85712H270.064C259.648 2.85712 251.204 11.2714 251.204 21.651V235.902C251.204 246.281 259.648 254.695 270.064 254.695H442.326C452.742 254.695 461.185 246.281 461.185 235.902V21.651C461.185 11.2714 452.742 2.85712 442.326 2.85712Z" stroke="#FECA74" stroke-width="2"></path><path d="M356.196 199.567C395.431 199.567 427.237 167.873 427.237 128.777C427.237 89.68 395.431 57.9863 356.196 57.9863C316.96 57.9863 285.153 89.68 285.153 128.777C285.153 167.873 316.96 199.567 356.196 199.567Z" stroke="#FECA74" stroke-width="2"></path><mask id="mask0_37_196" style="mask-type:luminance" maskUnits="userSpaceOnUse" x="283" y="56" width="125" height="145"><path d="M407.32 179.719C398.911 188.096 388.559 194.278 377.182 197.717C365.805 201.156 353.753 201.747 342.089 199.435C330.43 197.123 319.521 191.983 310.329 184.466C301.139 176.95 293.951 167.291 289.4 156.345C284.849 145.4 283.079 133.505 284.244 121.715C285.41 109.925 289.475 98.6017 296.081 88.7508C302.687 78.9 311.626 70.8243 322.113 65.2394C332.601 59.6545 344.305 56.7325 356.196 56.7325V128.776L407.32 179.719Z" fill="white"></path></mask><g mask="url(#mask0_37_196)"><path d="M407.32 179.719C398.911 188.096 388.559 194.278 377.182 197.717C365.805 201.156 353.753 201.747 342.089 199.435C330.43 197.123 319.521 191.983 310.329 184.466C301.139 176.95 293.951 167.291 289.4 156.345C284.849 145.4 283.079 133.505 284.244 121.715C285.41 109.925 289.475 98.6017 296.081 88.7508C302.687 78.9 311.626 70.8243 322.113 65.2394C332.601 59.6545 344.305 56.7325 356.196 56.7325V128.776L407.32 179.719Z" fill="#FECA74" stroke="#FECA74" stroke-width="4"></path></g><path d="M345.508 187.037H298.983C291.346 187.037 285.153 193.208 285.153 200.82C285.153 208.431 291.346 214.602 298.983 214.602H345.508C353.147 214.602 359.339 208.431 359.339 200.82C359.339 193.208 353.147 187.037 345.508 187.037Z" fill="#464D51" stroke="#FECA74" stroke-width="2"></path><path d="M664.882 2.85712H492.621C482.205 2.85712 473.759 11.2714 473.759 21.651V235.902C473.759 246.281 482.205 254.695 492.621 254.695H664.882C675.298 254.695 683.744 246.281 683.744 235.902V21.651C683.744 11.2714 675.298 2.85712 664.882 2.85712Z" stroke="#FECA74" stroke-width="2"></path><path d="M651.05 73.0211H507.71C500.07 73.0211 493.878 79.1914 493.878 86.8031C493.878 94.4148 500.07 100.585 507.71 100.585H651.05C658.69 100.585 664.882 94.4148 664.882 86.8031C664.882 79.1914 658.69 73.0211 651.05 73.0211Z" stroke="#FECA74" stroke-width="2"></path><path d="M646.021 148.197H512.739C502.321 148.197 493.878 156.611 493.878 166.991V215.855C493.878 226.235 502.321 234.649 512.739 234.649H646.021C656.436 234.649 664.882 226.235 664.882 215.855V166.991C664.882 156.611 656.436 148.197 646.021 148.197Z" stroke="#FECA74" stroke-width="2"></path><path d="M609.558 100.586H507.71C500.07 100.586 493.878 106.757 493.878 114.368C493.878 121.98 500.07 128.15 507.71 128.15H609.558C617.195 128.15 623.387 121.98 623.387 114.368C623.387 106.757 617.195 100.586 609.558 100.586Z" fill="#FECA74" stroke="#FECA74" stroke-width="2"></path><path d="M623.591 195.519L620.284 202.209C619.977 202.832 619.049 202.713 618.912 202.033L614.927 182.442C614.798 181.814 615.49 181.339 616.032 181.681L632.715 192.158C633.274 192.509 633.116 193.361 632.468 193.489L624.105 195.126C623.881 195.17 623.692 195.315 623.591 195.519Z" fill="#FECA74" stroke="#FECA74" stroke-width="1.16245"></path><path d="M661.911 21.6511H643.963C642.323 21.6511 640.991 22.9769 640.991 24.6125C640.991 26.2481 642.323 27.574 643.963 27.574H661.911C663.55 27.574 664.882 26.2481 664.882 24.6125C664.882 22.9769 663.55 21.6511 661.911 21.6511Z" fill="#FECA74"></path><path d="M661.911 32.0175H643.963C642.323 32.0175 640.991 33.3432 640.991 34.9789C640.991 36.6143 642.323 37.9403 643.963 37.9403H661.911C663.55 37.9403 664.882 36.6143 664.882 34.9789C664.882 33.3432 663.55 32.0175 661.911 32.0175Z" fill="#FECA74"></path><path d="M219.769 2.85712H47.5081C37.0916 2.85712 28.6475 11.2714 28.6475 21.651V235.902C28.6475 246.281 37.0916 254.695 47.5081 254.695H219.769C230.186 254.695 238.63 246.281 238.63 235.902V21.651C238.63 11.2714 230.186 2.85712 219.769 2.85712Z" stroke="#FECA74" stroke-width="2"></path><mask id="mask1_37_196" style="mask-type:luminance" maskUnits="userSpaceOnUse" x="96" y="101" width="118" height="130"><path d="M198.394 101.839H111.634C103.301 101.839 96.5459 108.57 96.5459 116.874V215.855C96.5459 224.159 103.301 230.89 111.634 230.89H198.394C206.727 230.89 213.482 224.159 213.482 215.855V116.874C213.482 108.57 206.727 101.839 198.394 101.839Z" fill="white"></path></mask><g mask="url(#mask1_37_196)"><path d="M198.394 101.839H111.634C103.301 101.839 96.5459 108.57 96.5459 116.874V215.855C96.5459 224.159 103.301 230.89 111.634 230.89H198.394C206.727 230.89 213.482 224.159 213.482 215.855V116.874C213.482 108.57 206.727 101.839 198.394 101.839Z" fill="#464D51"></path><path d="M139.296 306.066V25.4102" stroke="#FECA74" stroke-width="2"></path><path d="M124.208 306.066V25.4102" stroke="#FECA74" stroke-width="2"></path><path d="M109.12 306.066V25.4102" stroke="#FECA74" stroke-width="2"></path><path d="M199.651 306.066V25.4102" stroke="#FECA74" stroke-width="2"></path><path d="M184.562 306.066V25.4102" stroke="#FECA74" stroke-width="2"></path><path d="M169.474 306.066V25.4102" stroke="#FECA74" stroke-width="2"></path><path d="M154.385 306.066V25.4102" stroke="#FECA74" stroke-width="2"></path></g><path d="M198.393 103.091H111.634C103.996 103.091 97.8032 109.262 97.8032 116.874V215.855C97.8032 223.467 103.996 229.637 111.634 229.637H198.393C206.032 229.637 212.225 223.467 212.225 215.855V116.874C212.225 109.262 206.032 103.091 198.393 103.091Z" stroke="#FECA74" stroke-width="2"></path><path d="M155.642 27.9158H68.8829C61.2441 27.9158 55.0518 34.0863 55.0518 41.698V140.679C55.0518 148.291 61.2441 154.461 68.8829 154.461H155.642C163.281 154.461 169.473 148.291 169.473 140.679V41.698C169.473 34.0863 163.281 27.9158 155.642 27.9158Z" fill="#464D51"></path><path d="M155.642 27.9158H68.8829C61.2441 27.9158 55.0518 34.0863 55.0518 41.698V140.679C55.0518 148.291 61.2441 154.461 68.8829 154.461H155.642C163.281 154.461 169.473 148.291 169.473 140.679V41.698C169.473 34.0863 163.281 27.9158 155.642 27.9158Z" stroke="#FECA74" stroke-width="2"></path><path d="M204.68 51.7214H158.157C150.519 51.7214 144.326 57.892 144.326 65.5037C144.326 73.1154 150.519 79.286 158.157 79.286H204.68C212.319 79.286 218.512 73.1154 218.512 65.5037C218.512 57.892 212.319 51.7214 204.68 51.7214Z" fill="#FECA74" stroke="#FECA74" stroke-width="2"></path><path d="M51.9085 195.808C51.9085 182.314 40.931 171.375 27.3895 171.375C13.8481 171.375 2.87061 182.314 2.87061 195.808C2.87061 209.301 13.8481 220.24 27.3895 220.24C40.931 220.24 51.9085 209.301 51.9085 195.808Z" fill="#FECA74"></path><path d="M51.9085 195.808C51.9085 182.314 40.931 171.375 27.3895 171.375C13.8481 171.375 2.87061 182.314 2.87061 195.808C2.87061 209.301 13.8481 220.24 27.3895 220.24C40.931 220.24 51.9085 209.301 51.9085 195.808Z" stroke="#FECA74"></path><path d="M20.1069 200.007C20.5967 199.515 21.3929 199.513 21.8853 200.001C22.3775 200.489 22.3796 201.283 21.8899 201.773L20.1069 200.007ZM15.4174 208.257C14.9277 208.748 14.1315 208.749 13.6392 208.262C13.1468 207.773 13.1447 206.98 13.6345 206.49L15.4174 208.257ZM21.8899 201.773L15.4174 208.257L13.6345 206.49L20.1069 200.007L21.8899 201.773ZM28.3433 202.678C33.3721 202.678 37.4489 198.616 37.4489 193.605H39.9635C39.9635 200 34.761 205.183 28.3433 205.183V202.678ZM19.2376 193.605C19.2376 198.616 23.3144 202.678 28.3433 202.678V205.183C21.9255 205.183 16.7228 200 16.7228 193.605H19.2376ZM28.3433 184.531C23.3144 184.531 19.2376 188.593 19.2376 193.605H16.7228C16.7228 187.21 21.9255 182.026 28.3433 182.026V184.531ZM28.3433 182.026C34.761 182.026 39.9635 187.21 39.9635 193.605H37.4489C37.4489 188.593 33.3721 184.531 28.3433 184.531V182.026Z" fill="#464D51"></path></svg>