<svg xmlns="http://www.w3.org/2000/svg" viewBox="0 0 691 260" fill="none"><mask id="mask0_37_167" style="mask-type:luminance" maskUnits="userSpaceOnUse" x="2" y="2" width="686" height="255"><path d="M667.043 2.88889H22.8656C11.834 2.88889 2.89111 11.8246 2.89111 22.8473V236.153C2.89111 247.175 11.834 256.111 22.8656 256.111H667.043C678.073 256.111 687.016 247.175 687.016 236.153V22.8473C687.016 11.8246 678.073 2.88889 667.043 2.88889Z" fill="white"></path></mask><g mask="url(#mask0_37_167)"><path d="M233.846 25.3412H231.349C150.68 25.3412 85.2856 90.6834 85.2856 171.287C85.2856 251.891 150.68 317.232 231.349 317.232H233.846C314.515 317.232 379.908 251.891 379.908 171.287C379.908 90.6834 314.515 25.3412 233.846 25.3412Z" fill="#FECA74"></path><path d="M233.846 25.3412H231.349C150.68 25.3412 85.2856 90.6834 85.2856 171.287C85.2856 251.891 150.68 317.232 231.349 317.232H233.846C314.515 317.232 379.908 251.891 379.908 171.287C379.908 90.6834 314.515 25.3412 233.846 25.3412Z" stroke="#FECA74" stroke-width="2"></path><path d="M383.369 54.032H302.508C292.166 54.032 283.782 62.4092 283.782 72.7431V186.46C283.782 196.793 292.166 205.171 302.508 205.171H383.369C393.711 205.171 402.096 196.793 402.096 186.46V72.7431C402.096 62.4092 393.711 54.032 383.369 54.032Z" fill="#464D51" stroke="#FECA74" stroke-width="2"></path><path d="M331.955 120.194L313.65 127.273C311.525 128.097 311.525 131.104 313.65 131.927L331.955 139.006" stroke="#FECA74" stroke-width="2" stroke-linecap="round"></path><path d="M353.136 120.194L371.44 127.273C373.568 128.097 373.568 131.104 371.44 131.927L353.136 139.006" stroke="#FECA74" stroke-width="2" stroke-linecap="round"></path><path d="M345.292 117.06L339.801 141.359" stroke="#FECA74" stroke-width="2" stroke-linecap="round"></path><path d="M252.572 54.032H62.815C52.4728 54.032 44.0889 62.4092 44.0889 72.7431V186.256C44.0889 196.59 52.4728 204.967 62.815 204.967H252.572C262.914 204.967 271.298 196.59 271.298 186.256V72.7431C271.298 62.4092 262.914 54.032 252.572 54.032Z" fill="#464D51" stroke="#FECA74" stroke-width="2"></path><path d="M499.755 54.032H433.589C423.247 54.032 414.863 62.4092 414.863 72.7431V82.7222C414.863 93.056 423.247 101.433 433.589 101.433H499.755C510.096 101.433 518.481 93.056 518.481 82.7222V72.7431C518.481 62.4092 510.096 54.032 499.755 54.032Z" fill="#464D51" stroke="#FECA74" stroke-width="2"></path><path d="M615.857 136.361H433.589C423.247 136.361 414.863 144.738 414.863 155.072V186.257C414.863 196.591 423.247 204.968 433.589 204.968H615.857C626.199 204.968 634.583 196.591 634.583 186.257V155.072C634.583 144.738 626.199 136.361 615.857 136.361Z" fill="#464D51" stroke="#FECA74" stroke-width="2"></path><path d="M491.018 69.0011H442.33C437.504 69.0011 433.592 72.9103 433.592 77.7331C433.592 82.5555 437.504 86.4647 442.33 86.4647H491.018C495.843 86.4647 499.758 82.5555 499.758 77.7331C499.758 72.9103 495.843 69.0011 491.018 69.0011Z" fill="#FECA74"></path><path d="M615.857 54.032H549.692C539.35 54.032 530.965 62.4092 530.965 72.7431V82.7222C530.965 93.056 539.35 101.433 549.692 101.433H615.857C626.199 101.433 634.584 93.056 634.584 82.7222V72.7431C634.584 62.4092 626.199 54.032 615.857 54.032Z" fill="#464D51" stroke="#FECA74" stroke-width="2"></path><path d="M44.0889 173.159L93.9273 163.322C94.3986 163.23 94.8328 163.003 95.1783 162.67L130.576 128.5C131.142 127.952 131.935 127.704 132.714 127.831L168.804 133.744C169.293 133.823 169.794 133.756 170.244 133.552L218.372 111.637C218.697 111.489 219.05 111.413 219.407 111.413H270.05" stroke="#FECA74" stroke-width="2" stroke-linecap="round"></path><path d="M171.426 141.35C176.252 141.35 180.165 137.441 180.165 132.618C180.165 127.796 176.252 123.887 171.426 123.887C166.6 123.887 162.687 127.796 162.687 132.618C162.687 137.441 166.6 141.35 171.426 141.35Z" fill="#FECA74"></path><path d="M220.114 120.144C224.94 120.144 228.853 116.235 228.853 111.412C228.853 106.59 224.94 102.68 220.114 102.68C215.287 102.68 211.375 106.59 211.375 111.412C211.375 116.235 215.287 120.144 220.114 120.144Z" fill="#FECA74"></path><path d="M131.477 135.113C136.303 135.113 140.215 131.204 140.215 126.381C140.215 121.559 136.303 117.65 131.477 117.65C126.65 117.65 122.738 121.559 122.738 126.381C122.738 131.204 126.65 135.113 131.477 135.113Z" fill="#FECA74"></path><path d="M568.418 86.4647C573.244 86.4647 577.159 82.5555 577.159 77.7331C577.159 72.9103 573.244 69.0011 568.418 69.0011C563.593 69.0011 559.681 72.9103 559.681 77.7331C559.681 82.5555 563.593 86.4647 568.418 86.4647Z" fill="#FECA74"></path><path d="M595.882 85.217C600.019 85.217 603.373 81.8659 603.373 77.7325C603.373 73.5991 600.019 70.2482 595.882 70.2482C591.747 70.2482 588.394 73.5991 588.394 77.7325C588.394 81.8659 591.747 85.217 595.882 85.217Z" stroke="#FECA74" stroke-width="2"></path><path d="M92.7768 170.04C97.6031 170.04 101.515 166.131 101.515 161.308C101.515 156.486 97.6031 152.576 92.7768 152.576C87.9505 152.576 84.0381 156.486 84.0381 161.308C84.0381 166.131 87.9505 170.04 92.7768 170.04Z" fill="#FECA74"></path><path d="M467.298 102.68V110.165C467.298 114.299 470.652 117.649 474.786 117.649H515.986C520.123 117.649 523.474 121 523.474 125.134V136.36" stroke="#FECA74" stroke-width="2" stroke-linecap="round"></path><path d="M579.653 102.68V110.165C579.653 114.299 576.299 117.649 572.162 117.649H530.965C526.828 117.649 523.474 121 523.474 125.134V136.36" stroke="#FECA74" stroke-width="2" stroke-linecap="round"></path><path d="M603.998 201.85C603.998 184.627 590.024 170.665 572.787 170.665C555.549 170.665 541.576 184.627 541.576 201.85C541.576 219.073 555.549 233.035 572.787 233.035C590.024 233.035 603.998 219.073 603.998 201.85Z" fill="#FECA74"></path><path d="M603.998 201.85C603.998 184.627 590.024 170.665 572.787 170.665C555.549 170.665 541.576 184.627 541.576 201.85C541.576 219.073 555.549 233.035 572.787 233.035C590.024 233.035 603.998 219.073 603.998 201.85Z" stroke="#FECA74"></path><path d="M563.425 203.097L569 209.13C570.017 210.233 571.769 210.194 572.741 209.051L584.647 194.989" stroke="#464D51" stroke-width="2" stroke-linecap="round"></path></g><path d="M669.284 2.88889H21.7158C11.3192 2.88889 2.89111 11.3829 2.89111 21.8607V238.139C2.89111 248.617 11.3192 257.111 21.7158 257.111H669.284C679.681 257.111 688.109 248.617 688.109 238.139V21.8607C688.109 11.3829 679.681 2.88889 669.284 2.88889Z" stroke="#FECA74" stroke-width="2"></path></svg>