<svg xmlns="http://www.w3.org/2000/svg" viewBox="0 0 697 260" fill="none"><mask id="mask0_37_73" style="mask-type:luminance" maskUnits="userSpaceOnUse" x="2" y="2" width="693" height="257"><path d="M673.927 2.88889H23.0736C11.9276 2.88889 2.89209 11.9144 2.89209 23.0478V238.497C2.89209 249.63 11.9276 258.656 23.0736 258.656H673.927C685.073 258.656 694.108 249.63 694.108 238.497V23.0478C694.108 11.9144 685.073 2.88889 673.927 2.88889Z" fill="white"></path></mask><g mask="url(#mask0_37_73)"><path d="M308.768 71.5555C308.768 54.8551 295.215 41.3169 278.496 41.3169C261.776 41.3169 248.223 54.8551 248.223 71.5555C248.223 88.2556 261.776 101.794 278.496 101.794C295.215 101.794 308.768 88.2556 308.768 71.5555Z" fill="#FECA74"></path><path d="M308.768 71.5555C308.768 54.8551 295.215 41.3169 278.496 41.3169C261.776 41.3169 248.223 54.8551 248.223 71.5555C248.223 88.2556 261.776 101.794 278.496 101.794C295.215 101.794 308.768 88.2556 308.768 71.5555Z" stroke="#FECA74"></path><path d="M266.513 76.4386C268.12 79.5337 272.779 83.6605 278.562 83.6605C284.347 83.6605 289.006 79.5337 290.614 76.4386" stroke="#464D51" stroke-width="2" stroke-linecap="round"></path><path d="M273.742 61.9935C273.742 63.323 272.664 64.4008 271.332 64.4008C270.001 64.4008 268.923 63.323 268.923 61.9935C268.923 60.6638 270.001 59.5862 271.332 59.5862C272.664 59.5862 273.742 60.6638 273.742 61.9935Z" fill="#464D51"></path><path d="M288.203 61.9935C288.203 63.323 287.124 64.4008 285.792 64.4008C284.461 64.4008 283.383 63.323 283.383 61.9935C283.383 60.6638 284.461 59.5862 285.792 59.5862C287.124 59.5862 288.203 60.6638 288.203 61.9935Z" fill="#464D51"></path><path d="M390.123 186.839C390.123 148.568 359.065 117.543 320.75 117.543C282.437 117.543 251.377 148.568 251.377 186.839C251.377 225.111 282.437 256.136 320.75 256.136C359.065 256.136 390.123 225.111 390.123 186.839Z" stroke="#FECA74" stroke-width="2"></path><path d="M335.37 180.54V179.28H334.38L334.146 180.241L335.37 180.54ZM307.391 180.54V179.28H305.783L306.165 180.838L307.391 180.54ZM305.613 179.28C304.918 179.28 304.352 179.844 304.352 180.54C304.352 181.235 304.918 181.8 305.613 181.8V179.28ZM337.148 181.8C337.845 181.8 338.409 181.235 338.409 180.54C338.409 179.844 337.845 179.28 337.148 179.28V181.8ZM325.797 186.839C325.797 186.144 325.23 185.58 324.533 185.58C323.839 185.58 323.272 186.144 323.272 186.839H325.797ZM323.272 193.139C323.272 193.835 323.839 194.399 324.533 194.399C325.23 194.399 325.797 193.835 325.797 193.139H323.272ZM327.003 173.35C326.511 172.857 325.71 172.857 325.218 173.35C324.727 173.841 324.727 174.64 325.218 175.131L327.003 173.35ZM317.924 175.131C318.419 174.64 318.419 173.841 317.924 173.35C317.433 172.857 316.634 172.857 316.14 173.35L317.924 175.131ZM319.489 186.839C319.489 186.144 318.925 185.58 318.228 185.58C317.531 185.58 316.967 186.144 316.967 186.839H319.489ZM316.967 193.139C316.967 193.835 317.531 194.399 318.228 194.399C318.925 194.399 319.489 193.835 319.489 193.139H316.967ZM332.582 185.766L331.034 190.982L333.452 191.699L334.999 186.483L332.582 185.766ZM311.726 190.982L310.179 185.766L307.761 186.483L309.309 191.699L311.726 190.982ZM321.38 198.179C318.844 198.179 317.832 198.168 316.976 197.921L316.279 200.342C317.56 200.71 319.003 200.699 321.38 200.699V198.179ZM309.309 191.699C309.985 193.974 310.385 195.362 311.105 196.483L313.227 195.126C312.75 194.377 312.449 193.411 311.726 190.982L309.309 191.699ZM316.976 197.921C315.428 197.476 314.095 196.482 313.227 195.126L311.105 196.483C312.299 198.355 314.141 199.727 316.279 200.342L316.976 197.921ZM331.034 190.982C330.311 193.411 330.013 194.377 329.533 195.126L331.659 196.483C332.376 195.362 332.775 193.974 333.452 191.699L331.034 190.982ZM321.38 200.699C323.758 200.699 325.201 200.71 326.482 200.342L325.785 197.921C324.929 198.168 323.917 198.179 321.38 198.179V200.699ZM329.533 195.126C328.666 196.482 327.332 197.476 325.785 197.921L326.482 200.342C328.622 199.727 330.462 198.355 331.659 196.483L329.533 195.126ZM334.999 186.483C335.665 184.245 336.214 182.393 336.596 180.838L334.146 180.241C333.785 181.722 333.252 183.507 332.582 185.766L334.999 186.483ZM310.179 185.766C309.508 183.507 308.979 181.722 308.615 180.241L306.165 180.838C306.547 182.393 307.096 184.245 307.761 186.483L310.179 185.766ZM323.272 186.839V193.139H325.797V186.839H323.272ZM316.967 186.839V193.139H319.489V186.839H316.967ZM325.218 175.131L331.526 181.431L333.31 179.649L327.003 173.35L325.218 175.131ZM332.417 181.8H335.572V179.28H332.417V181.8ZM335.572 181.8H337.148V179.28H335.572V181.8ZM335.37 181.8H335.572V179.28H335.37V181.8ZM305.613 181.8H310.726V179.28H305.613V181.8ZM310.726 181.8H332.417V179.28H310.726V181.8ZM316.14 173.35L309.835 179.649L311.617 181.431L317.924 175.131L316.14 173.35ZM307.391 181.8H310.726V179.28H307.391V181.8Z" fill="#FECA74"></path><path d="M257.684 130.773C257.684 60.8406 200.929 4.14925 130.919 4.14925C60.9085 4.14925 4.15381 60.8406 4.15381 130.773C4.15381 200.705 60.9085 257.396 130.919 257.396C200.929 257.396 257.684 200.705 257.684 130.773Z" stroke="#FECA74" stroke-width="2"></path><path d="M154.253 117.543H107.583C99.9205 117.543 93.7085 123.748 93.7085 131.402C93.7085 139.057 99.9205 145.262 107.583 145.262H154.253C161.916 145.262 168.128 139.057 168.128 131.402C168.128 123.748 161.916 117.543 154.253 117.543Z" fill="#FECA74" stroke="#FECA74" stroke-width="2"></path><path d="M151.934 152.53L148.616 159.258C148.307 159.884 147.379 159.765 147.24 159.08L143.242 139.38C143.113 138.749 143.806 138.271 144.352 138.615L161.087 149.151C161.649 149.504 161.488 150.36 160.838 150.489L152.45 152.136C152.225 152.18 152.035 152.326 151.934 152.53Z" fill="#464D51" stroke="#FECA74" stroke-width="1.16245"></path><path d="M227.411 155.341L275.342 174.24" stroke="#FECA74" stroke-width="2" stroke-linecap="round"></path><path d="M536.441 92.3448C536.441 43.6358 496.909 4.14925 448.145 4.14925C399.384 4.14925 359.852 43.6358 359.852 92.3448C359.852 141.054 399.384 180.54 448.145 180.54C496.909 180.54 536.441 141.054 536.441 92.3448Z" stroke="#FECA74" stroke-width="2"></path><path d="M446.884 102.927C446.884 103.623 447.451 104.187 448.145 104.187C448.842 104.187 449.409 103.623 449.409 102.927H446.884ZM449.409 81.7602C449.409 81.0642 448.842 80.5003 448.145 80.5003C447.451 80.5003 446.884 81.0642 446.884 81.7602H449.409ZM451.728 87.0419C452.075 87.6446 452.845 87.8511 453.449 87.503C454.053 87.1552 454.259 86.3847 453.912 85.7821L451.728 87.0419ZM444.567 97.6453C444.217 97.0427 443.445 96.8361 442.844 97.1842C442.239 97.5321 442.031 98.3025 442.381 98.9052L444.567 97.6453ZM462.021 92.3436C462.021 99.998 455.809 106.203 448.145 106.203V108.723C457.203 108.723 464.543 101.39 464.543 92.3436H462.021ZM448.145 106.203C440.484 106.203 434.271 99.998 434.271 92.3436H431.75C431.75 101.39 439.09 108.723 448.145 108.723V106.203ZM434.271 92.3436C434.271 84.6895 440.484 78.4845 448.145 78.4845V75.9645C439.09 75.9645 431.75 83.2976 431.75 92.3436H434.271ZM448.145 78.4845C455.809 78.4845 462.021 84.6895 462.021 92.3436H464.543C464.543 83.2976 457.203 75.9645 448.145 75.9645V78.4845ZM453.912 85.7821L453.342 84.7984L451.159 86.0586L451.728 87.0419L453.912 85.7821ZM445.134 98.629L444.567 97.6453L442.381 98.9052L442.951 99.8888L445.134 98.629ZM449.027 94.0099C451.587 94.9497 451.884 98.4429 449.524 99.8042L450.785 101.986C454.999 99.5572 454.464 93.3224 449.898 91.6451L449.027 94.0099ZM445.507 82.7011C441.294 85.1304 441.829 91.3652 446.395 93.0424L447.266 90.6773C444.706 89.7376 444.408 86.2443 446.768 84.8834L445.507 82.7011ZM449.409 102.927V101.49H446.884V102.927H449.409ZM449.409 101.49V92.3436H446.884V101.49H449.409ZM449.524 99.8042C449.067 100.069 448.573 100.206 448.084 100.231L448.209 102.748C449.091 102.703 449.973 102.455 450.785 101.986L449.524 99.8042ZM448.084 100.231C446.913 100.29 445.756 99.7071 445.134 98.629L442.951 99.8888C444.064 101.817 446.129 102.852 448.209 102.748L448.084 100.231ZM446.395 93.0424L447.711 93.526L448.582 91.1612L447.266 90.6773L446.395 93.0424ZM447.711 93.526L449.027 94.0099L449.898 91.6451L448.582 91.1612L447.711 93.526ZM449.409 92.3436V83.198H446.884V92.3436H449.409ZM449.409 83.198V81.7602H446.884V83.198H449.409ZM453.342 84.7984C452.229 82.8698 450.161 81.8353 448.084 81.9396L448.209 84.4564C449.38 84.3977 450.534 84.9801 451.159 86.0586L453.342 84.7984ZM448.084 81.9396C447.202 81.9838 446.317 82.2322 445.507 82.7011L446.768 84.8834C447.225 84.619 447.72 84.4809 448.209 84.4564L448.084 81.9396Z" fill="#FECA74"></path><path d="M359.857 161.897L400.208 129.884" stroke="#FECA74" stroke-width="2" stroke-linecap="round"></path><path d="M692.847 168.57C692.847 120.905 654.162 82.2649 606.445 82.2649C558.725 82.2649 520.043 120.905 520.043 168.57C520.043 216.236 558.725 254.876 606.445 254.876C654.162 254.876 692.847 216.236 692.847 168.57Z" stroke="#FECA74" stroke-width="2"></path><path d="M662.789 180.971C669.875 180.971 675.618 175.234 675.618 168.156C675.618 161.078 669.875 155.34 662.789 155.34C655.703 155.34 649.959 161.078 649.959 168.156C649.959 175.234 655.703 180.971 662.789 180.971Z" fill="#FECA74"></path><path d="M506.291 117.995L551.44 142.806" stroke="#FECA74" stroke-width="2" stroke-linecap="round"></path></g><path d="M675.118 2.88889H21.8815C11.394 2.88889 2.89209 11.3829 2.89209 21.8607V238.139C2.89209 248.617 11.394 257.111 21.8815 257.111H675.118C685.605 257.111 694.108 248.617 694.108 238.139V21.8607C694.108 11.3829 685.605 2.88889 675.118 2.88889Z" stroke="#FECA74" stroke-width="2"></path></svg>