<svg xmlns="http://www.w3.org/2000/svg" viewBox="0 0 691 260" fill="none"><mask id="mask0_37_107" style="mask-type:luminance" maskUnits="userSpaceOnUse" x="2" y="2" width="687" height="255"><path d="M668.101 2.88892H22.8975C11.8483 2.88892 2.89111 11.8389 2.89111 22.8792V236.525C2.89111 247.565 11.8483 256.515 22.8975 256.515H668.101C679.152 256.515 688.109 247.565 688.109 236.525V22.8792C688.109 11.8389 679.152 2.88892 668.101 2.88892Z" fill="white"></path></mask><g mask="url(#mask0_37_107)"><path d="M389.889 230.279C465.506 230.279 526.808 169.027 526.808 93.47C526.808 17.9129 465.506 -43.3383 389.889 -43.3383C314.272 -43.3383 252.971 17.9129 252.971 93.47C252.971 169.027 314.272 230.279 389.889 230.279Z" fill="#FECA74" stroke="#FECA74" stroke-width="2"></path><path d="M64.785 353.967C140.403 353.967 201.704 292.717 201.704 217.16C201.704 141.603 140.403 80.3516 64.785 80.3516C-10.8329 80.3516 -72.1333 141.603 -72.1333 217.16C-72.1333 292.717 -10.8329 353.967 64.785 353.967Z" stroke="#FECA74" stroke-width="2"></path><path d="M586.202 423.933C662.51 423.933 724.371 362.122 724.371 285.876C724.371 209.629 662.51 147.819 586.202 147.819C509.892 147.819 448.031 209.629 448.031 285.876C448.031 362.122 509.892 423.933 586.202 423.933Z" fill="#FECA74"></path><path d="M35.6157 48.2952C42.6399 48.2952 48.3341 42.6056 48.3341 35.587C48.3341 28.5686 42.6399 22.879 35.6157 22.879C28.5916 22.879 22.8975 28.5686 22.8975 35.587C22.8975 42.6056 28.5916 48.2952 35.6157 48.2952Z" fill="#FECA74"></path><path d="M665.147 22.879H647.302C645.669 22.879 644.345 24.2012 644.345 25.8321C644.345 27.4631 645.669 28.7852 647.302 28.7852H665.147C666.781 28.7852 668.102 27.4631 668.102 25.8321C668.102 24.2012 666.781 22.879 665.147 22.879Z" fill="#FECA74"></path><path d="M665.147 33.2158H647.302C645.669 33.2158 644.345 34.5381 644.345 36.1688C644.345 37.7999 645.669 39.1222 647.302 39.1222H665.147C666.781 39.1222 668.102 37.7999 668.102 36.1688C668.102 34.5381 666.781 33.2158 665.147 33.2158Z" fill="#FECA74"></path><path d="M626.838 83.475C626.838 96.2107 616.233 106.589 603.081 106.589C589.932 106.589 579.324 96.2107 579.324 83.475C579.324 70.7394 589.932 60.3613 603.081 60.3613C616.233 60.3613 626.838 70.7394 626.838 83.475Z" stroke="#FECA74" stroke-width="2"></path><path d="M591.829 89.7268C593.436 92.8257 598.1 96.9577 603.891 96.9577C609.679 96.9577 614.342 92.8257 615.95 89.7268" stroke="#FECA74" stroke-width="2" stroke-linecap="round"></path><path d="M599.065 75.2651C599.065 76.5963 597.984 77.6753 596.651 77.6753C595.321 77.6753 594.24 76.5963 594.24 75.2651C594.24 73.9339 595.321 72.8549 596.651 72.8549C597.984 72.8549 599.065 73.9339 599.065 75.2651Z" fill="#FECA74"></path><path d="M613.538 75.2651C613.538 76.5963 612.457 77.6753 611.124 77.6753C609.791 77.6753 608.713 76.5963 608.713 75.2651C608.713 73.9339 609.791 72.8549 611.124 72.8549C612.457 72.8549 613.538 73.9339 613.538 75.2651Z" fill="#FECA74"></path><path d="M568.274 62.5713L564.984 69.2426C564.677 69.864 563.758 69.745 563.619 69.0664L559.655 49.5309C559.528 48.9048 560.216 48.4316 560.757 48.7722L577.346 59.2202C577.901 59.5703 577.745 60.4202 577.098 60.5471L568.783 62.1799C568.56 62.2235 568.372 62.3682 568.274 62.5713Z" fill="#FECA74" stroke="#FECA74" stroke-width="1.16245"></path><mask id="mask1_37_107" style="mask-type:alpha" maskUnits="userSpaceOnUse" x="-75" y="80" width="277" height="277"><path d="M63.5353 356.466C139.844 356.466 201.704 294.655 201.704 218.409C201.704 142.162 139.844 80.3516 63.5353 80.3516C-12.7734 80.3516 -74.6338 142.162 -74.6338 218.409C-74.6338 294.655 -12.7734 356.466 63.5353 356.466Z" fill="#FF5741"></path></mask><g mask="url(#mask1_37_107)"><path d="M77.916 363.962V84.0988" stroke="#FECA74" stroke-width="2"></path><path d="M62.9106 363.962V84.0988" stroke="#FECA74" stroke-width="2"></path><path d="M47.9062 363.962V84.0988" stroke="#FECA74" stroke-width="2"></path><path d="M32.9009 363.962V84.0988" stroke="#FECA74" stroke-width="2"></path><path d="M17.8965 363.962V84.0988" stroke="#FECA74" stroke-width="2"></path><path d="M2.89111 363.962L2.89112 84.0988" stroke="#FECA74" stroke-width="2"></path><path d="M167.943 363.962V84.0988" stroke="#FECA74" stroke-width="2"></path><path d="M152.938 363.962V84.0988" stroke="#FECA74" stroke-width="2"></path><path d="M137.934 363.962V84.0988" stroke="#FECA74" stroke-width="2"></path><path d="M122.929 363.962V84.0988" stroke="#FECA74" stroke-width="2"></path><path d="M107.924 363.962V84.0988" stroke="#FECA74" stroke-width="2"></path><path d="M92.9199 363.962V84.0988" stroke="#FECA74" stroke-width="2"></path><path d="M182.948 363.962V84.0988" stroke="#FECA74" stroke-width="2"></path></g></g><path d="M669.284 2.88892H21.7158C11.3192 2.88892 2.89111 11.3829 2.89111 21.8607V238.139C2.89111 248.617 11.3192 257.111 21.7158 257.111H669.284C679.681 257.111 688.109 248.617 688.109 238.139V21.8607C688.109 11.3829 679.681 2.88892 669.284 2.88892Z" stroke="#FECA74" stroke-width="2"></path><path d="M339.267 144.444H166.697C159.262 144.444 153.234 150.265 153.234 157.444C153.234 164.624 159.262 170.444 166.697 170.444H339.267C346.7 170.444 352.728 164.624 352.728 157.444C352.728 150.265 346.7 144.444 339.267 144.444Z" fill="#464D51" stroke="#FECA74" stroke-width="2"></path><path d="M555.752 118.444H248.006C240.375 118.444 234.188 124.265 234.188 131.444C234.188 138.624 240.375 144.444 248.006 144.444H555.752C563.382 144.444 569.569 138.624 569.569 131.444C569.569 124.265 563.382 118.444 555.752 118.444Z" fill="#464D51" stroke="#FECA74" stroke-width="2"></path></svg>