<svg xmlns="http://www.w3.org/2000/svg" viewBox="0 0 694 260" fill="none"><path d="M672.203 2.88892H21.7986C11.3566 2.88892 2.8916 11.3829 2.8916 21.8607V238.139C2.8916 248.617 11.3566 257.111 21.7986 257.111H672.203C682.644 257.111 691.108 248.617 691.108 238.139V21.8607C691.108 11.3829 682.644 2.88892 672.203 2.88892Z" stroke="#FECA74" stroke-width="2"></path><path d="M264.588 225.333C318.089 225.333 361.458 182.004 361.458 128.556C361.458 75.1068 318.089 31.7778 264.588 31.7778C211.087 31.7778 167.717 75.1068 167.717 128.556C167.717 182.004 211.087 225.333 264.588 225.333Z" fill="#FECA74"></path><path d="M325.313 161.778C342.081 161.778 355.675 148.197 355.675 131.444C355.675 114.692 342.081 101.111 325.313 101.111C308.544 101.111 294.95 114.692 294.95 131.444C294.95 148.197 308.544 161.778 325.313 161.778Z" fill="#464D51"></path><path d="M401.942 128.556C401.942 154.701 397.451 178.314 390.236 195.345C386.63 203.862 382.365 210.674 377.695 215.338C373.028 219.997 368.031 222.444 362.904 222.444C357.777 222.444 352.78 219.997 348.113 215.338C343.443 210.674 339.178 203.862 335.572 195.345C328.357 178.314 323.867 154.701 323.867 128.556C323.867 102.41 328.357 78.7965 335.572 61.7665C339.178 53.2492 343.443 46.4372 348.113 41.7736C352.78 37.1144 357.777 34.6667 362.904 34.6667C368.031 34.6667 373.028 37.1144 377.695 41.7736C382.365 46.4372 386.63 53.2492 390.236 61.7665C397.451 78.7965 401.942 102.41 401.942 128.556Z" fill="#464D51" stroke="#FECA74" stroke-width="2"></path><path d="M439.533 128.556C439.533 154.701 435.208 178.314 428.262 195.345C424.789 203.862 420.683 210.674 416.183 215.338C411.692 219.997 406.878 222.444 401.942 222.444C397.006 222.444 392.191 219.997 387.7 215.338C383.201 210.674 379.095 203.862 375.622 195.345C368.676 178.314 364.35 154.701 364.35 128.556C364.35 102.41 368.676 78.7965 375.622 61.7665C379.095 53.2492 383.201 46.4372 387.7 41.7736C392.191 37.1144 397.006 34.6667 401.942 34.6667C406.878 34.6667 411.692 37.1144 416.183 41.7736C420.683 46.4372 424.789 53.2492 428.262 61.7665C435.208 78.7965 439.533 102.41 439.533 128.556Z" fill="#464D51" stroke="#FECA74" stroke-width="2"></path><path d="M482.908 128.556C482.908 154.701 478.418 178.314 471.203 195.345C467.597 203.862 463.332 210.674 458.662 215.338C453.995 219.997 448.998 222.444 443.871 222.444C438.744 222.444 433.747 219.997 429.08 215.338C424.41 210.674 420.145 203.862 416.539 195.345C409.324 178.314 404.833 154.701 404.833 128.556C404.833 102.41 409.324 78.7965 416.539 61.7665C420.145 53.2492 424.41 46.4372 429.08 41.7736C433.747 37.1144 438.744 34.6667 443.871 34.6667C448.998 34.6667 453.995 37.1144 458.662 41.7736C463.332 46.4372 467.597 53.2492 471.203 61.7665C478.418 78.7965 482.908 102.41 482.908 128.556Z" fill="#464D51" stroke="#FECA74" stroke-width="2"></path><path d="M520.5 128.556C520.5 154.701 516.009 178.314 508.794 195.345C505.188 203.862 500.923 210.674 496.253 215.338C491.586 219.997 486.589 222.444 481.462 222.444C476.335 222.444 471.339 219.997 466.671 215.338C462.001 210.674 457.736 203.862 454.13 195.345C446.916 178.314 442.425 154.701 442.425 128.556C442.425 102.41 446.916 78.7965 454.13 61.7665C457.736 53.2492 462.001 46.4372 466.671 41.7736C471.339 37.1144 476.335 34.6667 481.462 34.6667C486.589 34.6667 491.586 37.1144 496.253 41.7736C500.923 46.4372 505.188 53.2492 508.794 61.7665C516.009 78.7965 520.5 102.41 520.5 128.556Z" fill="#464D51" stroke="#FECA74" stroke-width="2"></path><path d="M130.125 118.444L111.506 126.054C109.342 126.939 109.342 130.172 111.506 131.057L130.125 138.667" stroke="#FECA74" stroke-width="2" stroke-linecap="round"></path><path d="M566.767 118.444L582.726 126.054C584.579 126.939 584.579 130.172 582.726 131.057L566.767 138.667" stroke="#FECA74" stroke-width="2" stroke-linecap="round"></path><path d="M484.354 141.556C491.54 141.556 497.367 135.735 497.367 128.556C497.367 121.376 491.54 115.556 484.354 115.556C477.169 115.556 471.342 121.376 471.342 128.556C471.342 135.735 477.169 141.556 484.354 141.556Z" fill="#FECA74"></path></svg>