<svg xmlns="http://www.w3.org/2000/svg" width="304" height="63" viewBox="0 0 304 63" fill="none"><path d="M248 3V59H256V3H248Z" fill="#8E8E8E"></path><path fill-rule="evenodd" clip-rule="evenodd" d="M173.012 60C169.781 60 167.083 59.2469 164.916 57.7399C164.678 57.5755 164.448 57.4039 164.224 57.2258V59.0961H157V4H165.247V27.6031C167.27 26.3008 169.718 25.6496 172.59 25.6496C175.701 25.6496 178.409 26.3929 180.717 27.8794C183.025 29.3659 184.81 31.4049 186.074 33.9962C187.358 36.5676 188 39.5104 188 42.8245C188 46.079 187.368 49.0017 186.104 51.5935C184.86 54.1846 183.114 56.2336 180.867 57.7399C178.62 59.2469 176.002 60 173.012 60ZM164.946 37.6423C164.464 39.1285 164.224 40.8559 164.224 42.8245C164.224 44.7931 164.464 46.5212 164.946 48.0074C165.427 49.4942 166.21 50.6487 167.293 51.4729C168.397 52.2964 169.862 52.7078 171.688 52.7078C173.453 52.7078 174.898 52.2662 176.022 51.3824C177.146 50.4987 177.978 49.3133 178.52 47.8264C179.062 46.3202 179.332 44.6531 179.332 42.8245C179.332 41.0167 179.052 39.3697 178.489 37.8836C177.928 36.3766 177.055 35.1813 175.871 34.2975C174.707 33.3936 173.212 32.9416 171.386 32.9416C169.681 32.9416 168.296 33.3534 167.233 34.177C166.19 35.0006 165.427 36.1555 164.946 37.6423Z" fill="#8E8E8E"></path><path d="M143.706 39.9635V59H152V37.8158C152 34.2948 151.034 31.4503 149.103 29.2821C147.192 27.094 144.356 26 140.595 26C138.399 26 136.396 26.4774 134.587 27.4322C132.931 28.2979 131.579 29.4875 130.533 31.0013C129.752 29.6275 128.674 28.4975 127.298 27.6112C125.652 26.537 123.537 26 120.956 26C118.699 26 116.656 26.4873 114.826 27.462C113.443 28.2069 112.274 29.155 111.319 30.3063V26.7758H104V59H112.355V39.4864C112.355 37.6366 112.874 36.1347 113.911 34.981C114.968 33.8074 116.361 33.2206 118.089 33.2206C119.899 33.2206 121.311 33.8174 122.328 35.0109C123.365 36.1845 123.883 37.8357 123.883 39.9635V59H132.178V39.4864C132.178 38.253 132.412 37.1688 132.88 36.2342C133.367 35.2794 134.038 34.5434 134.892 34.0262C135.746 33.4891 136.753 33.2206 137.912 33.2206C139.721 33.2206 141.133 33.8174 142.15 35.0109C143.187 36.1845 143.706 37.8357 143.706 39.9635Z" fill="#8E8E8E"></path><path d="M74.5857 58.7237C76.2191 59.5743 78.3328 60 80.9268 60C84.1733 60 86.8593 59.3177 88.9832 57.9523C89.9912 57.3109 90.8794 56.5748 91.648 55.7454V59.0504H99V27H90.6064V43.2624C90.6064 45.2409 90.3714 46.8431 89.9021 48.0699C89.4525 49.2769 88.8708 50.1969 88.1555 50.8297C87.441 51.4435 86.6753 51.8585 85.8586 52.0763C85.0419 52.2941 84.2755 52.403 83.5609 52.403C81.7844 52.403 80.4057 52.0169 79.4255 51.2455C78.4657 50.474 77.7716 49.5145 77.3424 48.3669C76.914 47.2193 76.6585 46.0816 76.5768 44.9538C76.495 43.8069 76.4542 42.8672 76.4542 42.1346V27H68V44.9835C68 45.518 68.0401 46.3687 68.1219 47.5361C68.2036 48.7035 68.4387 49.9989 68.827 51.4237C69.2145 52.828 69.8583 54.1835 70.7567 55.4895C71.6757 56.7947 72.9522 57.8731 74.5857 58.7237Z" fill="#8E8E8E"></path><path d="M192 27.1063V59H200.211V42.6989C200.211 41.4781 200.381 40.3853 200.721 39.4206C201.061 38.4363 201.56 37.5898 202.219 36.8812C202.879 36.1527 203.688 35.5719 204.647 35.1388C205.606 34.686 206.675 34.4202 207.854 34.3415C209.052 34.243 210.101 34.3316 211 34.6072V27.1063C210.021 26.9882 209.042 26.9685 208.063 27.0473C207.084 27.1063 206.135 27.2736 205.216 27.5493C204.297 27.8052 203.448 28.1694 202.669 28.6419C201.65 29.2326 200.791 29.9807 200.092 30.8863C199.761 31.315 199.461 31.7658 199.192 32.2386V27.1063H192Z" fill="#8E8E8E"></path><path fill-rule="evenodd" clip-rule="evenodd" d="M228.048 60C224.691 60 221.728 59.2944 219.16 57.8823C216.612 56.4511 214.61 54.4926 213.154 52.0069C211.718 49.5019 211 46.6388 211 43.4175C211 39.8985 211.708 36.8364 213.123 34.2316C214.539 31.6269 216.49 29.6088 218.978 28.1772C221.465 26.7258 224.327 26 227.562 26C231.001 26 233.923 26.7953 236.329 28.386C238.736 29.9766 240.515 32.2134 241.668 35.0965C242.821 37.9798 243.225 41.3695 242.881 45.2666H219.878C220.135 47.2002 220.746 48.7707 221.708 49.9787C223.043 51.6096 224.994 52.4247 227.562 52.4247C229.181 52.4247 230.565 52.0765 231.718 51.3808C232.871 50.6851 233.751 49.681 234.357 48.3685L242.608 50.6951C241.374 53.6378 239.423 55.9238 236.754 57.554C234.105 59.1849 231.203 60 228.048 60ZM233.114 35.2158C233.819 36.1577 234.292 37.5001 234.533 39.2419H220.095C220.416 37.7545 220.954 36.5316 221.708 35.5737C223.043 33.8836 225.116 33.0386 227.927 33.0386C230.333 33.0386 232.062 33.7644 233.114 35.2158Z" fill="#8E8E8E"></path><path d="M263 59V3H271V59H263Z" fill="#8E8E8E"></path><path fill-rule="evenodd" clip-rule="evenodd" d="M279.893 58.6875C281.515 59.5623 283.486 60 285.807 60C288.609 60 290.921 59.5225 292.742 58.5681C294.194 57.7999 295.565 56.6615 296.855 55.1514V59.1053H304V39.421C304 37.95 303.94 36.6175 303.82 35.4246C303.7 34.2316 303.319 33.0386 302.679 31.8456C301.538 29.6982 299.857 28.1872 297.635 27.3123C295.414 26.4375 292.872 26 290.01 26C286.108 26 283.026 26.8351 280.764 28.5053C278.503 30.1754 276.961 32.3427 276.141 35.007L283.526 37.3331C284.046 35.862 284.957 34.8381 286.258 34.2615C287.558 33.6848 288.809 33.3965 290.01 33.3965C292.172 33.3965 293.713 33.8439 294.633 34.7386C295.356 35.4412 295.796 36.4562 295.951 37.7844C294.568 37.9926 293.258 38.1902 292.022 38.3771C289.92 38.6755 288.039 38.9939 286.378 39.3314C284.716 39.6697 283.286 40.0577 282.085 40.4947C280.344 41.1307 278.953 41.9266 277.912 42.881C276.891 43.8155 276.151 44.8985 275.69 46.1314C275.23 47.3643 275 48.7266 275 50.2175C275 52.0069 275.411 53.647 276.231 55.1386C277.071 56.6096 278.292 57.7928 279.893 58.6875ZM291.332 52.8419C290.311 53.3592 289.05 53.6179 287.548 53.6179C286.608 53.6179 285.797 53.4786 285.117 53.2C284.437 52.9215 283.906 52.5242 283.526 52.0069C283.166 51.4704 282.986 50.8336 282.986 50.0981C282.986 49.5616 283.096 49.0741 283.316 48.6371C283.556 48.1993 283.916 47.8021 284.397 47.4439C284.897 47.0659 285.547 46.7184 286.348 46.4C287.048 46.1414 287.859 45.9026 288.779 45.6844C289.7 45.4656 290.911 45.2268 292.412 44.9681C293.376 44.7897 294.531 44.5858 295.876 44.3577C295.857 44.9248 295.823 45.5658 295.774 46.2806C295.714 47.434 295.474 48.4481 295.054 49.3228C294.834 49.7798 294.413 50.3468 293.793 51.0227C293.193 51.6985 292.372 52.3053 291.332 52.8419Z" fill="#8E8E8E"></path><path fill-rule="evenodd" clip-rule="evenodd" d="M22.5067 26.7931H0V36.569C0 51.1661 11.8644 63 26.4998 63C41.1353 63 53 51.1661 53 36.569V26.7931H29.7669V11.2241C29.7669 5.02523 24.7286 0 18.5136 0C12.2985 0 7.26022 5.02523 7.26022 11.2241H14.5204C14.5204 9.0245 16.3083 7.24138 18.5136 7.24138C20.7189 7.24138 22.5067 9.0245 22.5067 11.2241V26.7931ZM22.5067 34.0345V47.7931H29.7669V34.0345H45.7398V36.569C45.7398 47.1674 37.1255 55.7586 26.4998 55.7586C15.8741 55.7586 7.26022 47.1674 7.26022 36.569V34.0345H22.5067Z" fill="#8E8E8E"></path></svg>