<svg xmlns="http://www.w3.org/2000/svg" width="264" height="67" viewBox="0 0 264 67" fill="none"><path d="M41.0645 12.9677C41.0645 5.80588 46.8705 0 54.0323 0C61.1941 0 67 5.80588 67 12.9677C67 20.1296 61.1941 25.9355 54.0323 25.9355C46.8705 25.9355 41.0645 20.1296 41.0645 12.9677Z" fill="#8E8E8E"></path><path d="M54.8174 31.6824V41.0141C54.8174 45.1486 54.8145 48.0736 54.625 50.3588C54.4384 52.6087 54.0847 53.9797 53.5257 55.0545C52.4378 57.1488 50.7304 58.857 48.6354 59.9448C47.5605 60.5039 46.1895 60.8576 43.9396 61.0442C41.6544 61.2337 38.7295 61.2366 34.5953 61.2366H25.9853C21.8509 61.2366 18.9262 61.2337 16.6413 61.0442C14.3909 60.8576 13.0204 60.5039 11.9452 59.9448C9.85058 58.857 8.14274 57.1488 7.05467 55.0545C6.49612 53.9797 6.14246 52.6087 5.95551 50.3588C5.76582 48.0736 5.76344 45.1486 5.76344 41.0141V32.4044C5.76344 28.2699 5.76582 25.3453 5.95551 23.0604C6.14246 20.81 6.49612 19.4395 7.05467 18.3642C8.14274 16.2697 9.85058 14.5618 11.9452 13.4738C13.0204 12.9152 14.3909 12.5615 16.6413 12.3747C18.9262 12.1849 21.8508 12.1826 25.9853 12.1826H35.3172C35.4005 10.1624 35.8038 8.22484 36.4774 6.41915H25.8571C21.8797 6.41908 18.7157 6.41908 16.1643 6.63096C13.5511 6.84795 11.3234 7.30211 9.28836 8.3592C6.14109 9.99407 3.57499 12.5602 1.94012 15.7075C0.883032 17.7424 0.428873 19.9702 0.21188 22.5834C1.2517e-06 25.1348 0 28.2988 0 32.2762V41.1423C0 45.1198 1.2517e-06 48.2839 0.21188 50.8357C0.428873 53.4487 0.883032 55.6763 1.94012 57.7115C3.57499 60.8583 6.14109 63.4245 9.28836 65.0599C11.3234 66.1168 13.5511 66.5706 16.1643 66.7882C18.7157 67 21.8795 67 25.857 67H34.7234C38.7006 67 41.8648 67 44.4165 66.7882C47.0295 66.5706 49.2571 66.1168 51.2923 65.0599C54.4392 63.4245 57.0053 60.8583 58.6407 57.7115C59.6976 55.6763 60.1515 53.4487 60.369 50.8357C60.5808 48.2839 60.5808 45.1198 60.5808 41.143V30.5221C58.7747 31.1959 56.8375 31.5991 54.8174 31.6824Z" fill="#8E8E8E"></path><path d="M105 31.212C105 32.977 104.576 34.6317 103.727 36.1764C102.91 37.7208 101.606 38.9656 99.8137 39.9113C98.0534 40.8564 95.8215 41.3293 93.1179 41.3293H87.6012V54H81V21H93.1179C95.6645 21 97.8333 21.4413 99.6252 22.3238C101.416 23.2063 102.752 24.4197 103.632 25.9641C104.544 27.5085 105 29.2578 105 31.212ZM92.8348 35.987C94.6582 35.987 96.01 35.5773 96.8901 34.7578C97.7703 33.9068 98.2103 32.7248 98.2103 31.212C98.2103 27.997 96.4185 26.3896 92.8348 26.3896H87.6012V35.987H92.8348Z" fill="#8E8E8E"></path><path d="M114.323 32.3488C115.136 30.9916 116.189 29.9276 117.484 29.1565C118.808 28.3855 120.314 28 122 28V34.8007H120.329C118.342 34.8007 116.837 35.2787 115.813 36.2348C114.819 37.1912 114.323 38.8565 114.323 41.2313V54H108V28.3701H114.323V32.3488Z" fill="#8E8E8E"></path><path d="M136.31 55C133.784 55 131.51 54.4489 129.489 53.3475C127.468 52.2146 125.874 50.626 124.705 48.5803C123.568 46.5347 123 44.1748 123 41.4999C123 38.8249 123.584 36.465 124.753 34.4196C125.952 32.3741 127.579 30.8007 129.632 29.6993C131.684 28.5664 133.973 28 136.5 28C139.026 28 141.316 28.5664 143.368 29.6993C145.421 30.8007 147.031 32.3741 148.2 34.4196C149.399 36.465 150 38.8249 150 41.4999C150 44.1748 149.384 46.5347 148.152 48.5803C146.952 50.626 145.31 52.2146 143.226 53.3475C141.173 54.4489 138.868 55 136.31 55ZM136.31 49.2412C137.51 49.2412 138.631 48.9578 139.673 48.3916C140.747 47.7939 141.6 46.9128 142.231 45.7483C142.863 44.5838 143.178 43.1681 143.178 41.4999C143.178 39.0136 142.515 37.1101 141.189 35.7884C139.894 34.4353 138.299 33.7587 136.405 33.7587C134.511 33.7587 132.916 34.4353 131.621 35.7884C130.357 37.1101 129.726 39.0136 129.726 41.4999C129.726 43.9861 130.342 45.9054 131.574 47.2587C132.836 48.5803 134.415 49.2412 136.31 49.2412Z" fill="#8E8E8E"></path><path d="M152 41.1578C152 38.4662 152.514 36.0787 153.544 33.9959C154.605 31.9132 156.04 30.311 157.849 29.1895C159.659 28.068 161.67 27.5073 163.885 27.5073C165.57 27.5073 167.177 27.8918 168.705 28.6608C170.234 29.3978 171.451 30.3912 172.355 31.6408V19H179V54.5675H172.355V50.6258C171.544 51.9395 170.405 52.9974 168.939 53.7981C167.473 54.5996 165.773 55 163.838 55C161.655 55 159.659 54.4228 157.849 53.2699C156.04 52.1163 154.605 50.498 153.544 48.415C152.514 46.3006 152 43.8808 152 41.1578ZM172.402 41.2535C172.402 39.6191 172.09 38.2258 171.466 37.0722C170.842 35.8864 170 34.9893 168.939 34.3805C167.879 33.7396 166.74 33.4192 165.523 33.4192C164.306 33.4192 163.183 33.7236 162.154 34.3324C161.125 34.9412 160.283 35.8384 159.627 37.024C159.004 38.1776 158.691 39.5555 158.691 41.1578C158.691 42.7593 159.004 44.1694 159.627 45.3873C160.283 46.5724 161.125 47.4856 162.154 48.1264C163.215 48.7679 164.338 49.0879 165.523 49.0879C166.74 49.0879 167.879 48.7839 168.939 48.1746C170 47.5338 170.842 46.6367 171.466 45.483C172.09 44.298 172.402 42.8879 172.402 41.2535Z" fill="#8E8E8E"></path><path d="M209 28V54.6635H202.057V51.2945C201.17 52.4496 200.005 53.3641 198.56 54.0379C197.149 54.6796 195.606 55 193.931 55C191.798 55 189.91 54.5669 188.269 53.7007C186.627 52.8023 185.331 51.503 184.379 49.802C183.46 48.0696 183 46.016 183 43.6419V28H189.894V42.6792C189.894 44.7971 190.435 46.433 191.519 47.5882C192.602 48.7112 194.08 49.2731 195.95 49.2731C197.854 49.2731 199.349 48.7112 200.432 47.5882C201.515 46.433 202.057 44.7971 202.057 42.6792V28H209Z" fill="#8E8E8E"></path><path d="M212 41.4999C212 38.7934 212.546 36.4335 213.636 34.4196C214.726 32.3741 216.237 30.8007 218.169 29.6993C220.1 28.5664 222.312 28 224.804 28C228.013 28 230.66 28.8182 232.748 30.4546C234.866 32.0594 236.284 34.3252 237 37.2514H229.944C229.57 36.1188 228.931 35.2378 228.029 34.6084C227.156 33.9475 226.066 33.6171 224.757 33.6171C222.888 33.6171 221.408 34.3094 220.318 35.694C219.228 37.0469 218.682 38.9828 218.682 41.4999C218.682 43.9861 219.228 45.9212 220.318 47.306C221.408 48.6593 222.888 49.3359 224.757 49.3359C227.405 49.3359 229.134 48.1398 229.944 45.7483H237C236.284 48.5803 234.866 50.8305 232.748 52.498C230.63 54.1662 227.982 55 224.804 55C222.312 55 220.1 54.4489 218.169 53.3475C216.237 52.2146 214.726 50.6418 213.636 48.6277C212.546 46.5821 212 44.2063 212 41.4999Z" fill="#8E8E8E"></path><path d="M248.006 33.6699V46.0806C248.006 46.9451 248.215 47.5779 248.634 47.9799C249.085 48.3501 249.826 48.5353 250.858 48.5353H254V54H249.746C244.042 54 241.19 51.3447 241.19 46.0349V33.6699H238V28.3444H241.19V22H248.006V28.3444H254V33.6699H248.006Z" fill="#8E8E8E"></path><path d="M259.552 55C258.227 55 257.128 54.6255 256.256 53.8781C255.418 53.0973 255 52.1378 255 50.9996C255 49.8614 255.418 48.9182 256.256 48.1708C257.128 47.39 258.227 47 259.552 47C260.843 47 261.907 47.39 262.744 48.1708C263.582 48.9182 264 49.8614 264 50.9996C264 52.1378 263.582 53.0973 262.744 53.8781C261.907 54.6255 260.843 55 259.552 55Z" fill="#8E8E8E"></path></svg>