<svg xmlns="http://www.w3.org/2000/svg" width="197" height="65" viewBox="0 0 197 65" fill="none"><path d="M76.2832 47.5295H59V16H75.3643C77.7237 16 79.6693 16.2824 81.2018 16.8471C82.7647 17.3804 83.9289 18.2275 84.6951 19.3883C85.4613 20.5177 85.8441 21.9765 85.8441 23.7647C85.8441 25.7412 85.3231 27.3099 84.2812 28.4706C83.2393 29.6314 81.6613 30.3059 79.5471 30.4942V31.1059C82.1518 31.2 84.0822 31.9687 85.339 33.4118C86.6255 34.855 87.2694 36.6432 87.2694 38.7765C87.2694 40.5961 86.8708 42.1647 86.0742 43.4824C85.3079 44.8 84.1126 45.8039 82.489 46.4941C80.8646 47.1844 78.796 47.5295 76.2832 47.5295ZM67.6416 34.8706V39.5765H75.9619C76.7889 39.5765 77.4169 39.451 77.846 39.2C78.2751 38.949 78.49 38.3059 78.49 37.2706C78.49 36.2039 78.2903 35.5451 77.8923 35.2941C77.4936 35.0118 76.8504 34.8706 75.9619 34.8706H67.6416ZM67.6416 23.953V28H74.9041C75.7933 28 76.3902 27.8589 76.697 27.5765C77.0342 27.2941 77.2028 26.7608 77.2028 25.9765C77.2028 25.1294 77.0038 24.5804 76.6051 24.3294C76.2376 24.0784 75.6088 23.953 74.7203 23.953H67.6416ZM100.293 48C97.75 48 95.5743 47.5138 93.7662 46.5412C91.9891 45.5373 90.6252 44.1256 89.6752 42.3059C88.7563 40.455 88.2962 38.2432 88.2962 35.6706C88.2962 33.0039 88.7715 30.7138 89.7215 28.8C90.6716 26.8863 92.0658 25.4275 93.9044 24.4236C95.7429 23.3883 97.9649 22.8706 100.57 22.8706C103.113 22.8706 105.227 23.3412 106.913 24.2824C108.628 25.2236 109.9 26.5256 110.728 28.1883C111.586 29.8196 112.015 31.7177 112.015 33.8824C112.015 34.5412 111.969 35.2 111.877 35.8589C111.785 36.5177 111.709 37.051 111.647 37.4589H91.9739V32.6589H104.155L103.787 32.8941C103.818 32.3294 103.726 31.8275 103.511 31.3883C103.327 30.9177 102.96 30.5412 102.408 30.2589C101.887 29.9765 101.121 29.8353 100.109 29.8353C98.7 29.8353 97.7196 30.102 97.1675 30.6353C96.6162 31.1373 96.3405 31.953 96.3405 33.0824V36.4236C96.3405 37.5844 96.4324 38.4784 96.6162 39.1059C96.8 39.702 97.1835 40.1099 97.7652 40.3295C98.3476 40.549 99.2361 40.6589 100.431 40.6589C101.473 40.6589 102.193 40.549 102.592 40.3295C102.99 40.0784 103.19 39.6863 103.19 39.153V39.0589H111.739V39.6236C111.739 41.255 111.264 42.6981 110.314 43.953C109.395 45.2079 108.077 46.1961 106.361 46.9177C104.676 47.6393 102.653 48 100.293 48ZM122.534 47.5295H113.939V23.3412H121.983V30.2118L122.534 30.4471V47.5295ZM122.534 32.2353H120.788V27.0118H122.397C123.07 25.8196 123.96 24.8314 125.062 24.0471C126.196 23.2627 127.545 22.8706 129.108 22.8706C130.64 22.8706 131.85 23.1844 132.739 23.8118C133.628 24.4393 134.271 25.3333 134.67 26.4941C135.068 27.655 135.267 29.0353 135.267 30.6353V35.0118H126.625V32.6118C126.625 31.702 126.503 31.0902 126.258 30.7765C126.012 30.4627 125.491 30.3059 124.695 30.3059C123.99 30.3059 123.454 30.4157 123.086 30.6353C122.718 30.8236 122.534 31.3569 122.534 32.2353ZM145.383 47.5295H136.787V16H145.383V47.5295ZM156.74 21.1765H148.144V16H156.74V21.1765ZM156.786 47.5295H148.144V23.3412H156.786V47.5295ZM184.138 47.5295H175.496V33.8824C175.496 32.5961 175.266 31.702 174.807 31.2C174.378 30.6981 173.397 30.4471 171.865 30.4471C170.915 30.4471 170.164 30.5412 169.612 30.7294C169.091 30.9177 168.709 31.2471 168.463 31.7177C168.249 32.1883 168.141 32.8627 168.141 33.7412H166.762V27.0118H168.004C168.433 26.102 169.031 25.349 169.796 24.753C170.562 24.1256 171.451 23.655 172.462 23.3412C173.474 23.0275 174.561 22.8706 175.726 22.8706C177.779 22.8706 179.419 23.2941 180.644 24.1412C181.87 24.9569 182.759 26.0706 183.311 27.4824C183.862 28.8627 184.138 30.3844 184.138 32.0471V47.5295ZM168.141 47.5295H159.546V23.3412H167.59V29.9765L168.141 30.2118V47.5295ZM197 47.5295H186.704V37.7883H197V47.5295Z" fill="#8E8E8E"></path><path d="M42.1667 9H3.83334C1.71624 9 0 10.7162 0 12.8333V51.1667C0 53.2838 1.71624 55 3.83334 55H42.1667C44.2838 55 46 53.2838 46 51.1667V12.8333C46 10.7162 44.2838 9 42.1667 9Z" fill="white" fill-opacity="0.1"></path><path d="M36.125 6H9.875C8.83947 6 8 5.10457 8 4V2C8 0.895431 8.83947 0 9.875 0H36.125C37.1605 0 38 0.895431 38 2V4C38 5.10457 37.1605 6 36.125 6Z" fill="#8E8E8E"></path><path d="M36.125 65H9.875C8.83947 65 8 64.1046 8 63V61C8 59.8954 8.83947 59 9.875 59H36.125C37.1605 59 38 59.8954 38 61V63C38 64.1046 37.1605 65 36.125 65Z" fill="#8E8E8E"></path><path fill-rule="evenodd" clip-rule="evenodd" d="M38.4406 26.6369C39.1865 27.3871 39.1865 28.6032 38.4406 29.3532L23.4406 44.4374C22.6947 45.1875 21.4854 45.1875 20.7395 44.4374L9.55945 33.1946C8.81352 32.4445 8.81352 31.2284 9.55945 30.4783L13.611 26.404C14.357 25.6538 15.5663 25.6538 16.3122 26.404L22.09 32.2143L31.6878 22.5626C32.4337 21.8125 33.643 21.8125 34.389 22.5626L38.4406 26.6369Z" fill="#8E8E8E"></path></svg>