<svg xmlns="http://www.w3.org/2000/svg" width="218" height="65" viewBox="0 0 218 65" fill="none"><path d="M81.3134 58C80.0358 58 79 56.9653 79 55.689V9.311C79 8.03466 80.0358 7 81.3134 7H99.495C104.795 7 108.831 8.23857 111.603 10.7157C114.423 13.1443 115.833 16.2772 115.833 20.1143C115.833 23.32 114.958 25.8943 113.207 27.8372C111.505 29.7314 109.415 31.0186 106.935 31.6985C109.853 32.2814 112.26 33.7386 114.155 36.07C116.052 38.3529 117 41.0243 117 44.0843C117 48.1157 115.542 51.4429 112.624 54.0657C109.706 56.6886 105.574 58 100.225 58H81.3134ZM88.3355 28.42H98.1094C100.735 28.42 102.753 27.8129 104.163 26.5986C105.574 25.3843 106.278 23.66 106.278 21.4257C106.278 19.2886 105.574 17.6128 104.163 16.3985C102.802 15.1357 100.735 14.5043 97.9633 14.5043H88.3355V28.42ZM88.3355 50.4228H98.7658C101.538 50.4228 103.677 49.7914 105.184 48.5285C106.74 47.2171 107.518 45.3957 107.518 43.0642C107.518 40.6843 106.716 38.8143 105.111 37.4543C103.507 36.0943 101.343 35.4142 98.6197 35.4142H88.3355V50.4228Z" fill="#8E8E8E"></path><path d="M137.793 59C134.136 59 130.894 58.2205 128.067 56.6615C125.24 55.1025 123.021 52.9102 121.413 50.0846C119.805 47.259 119 43.9949 119 40.2923C119 36.5411 119.78 33.2039 121.34 30.2808C122.949 27.3577 125.142 25.0923 127.921 23.4847C130.748 21.8282 134.063 21 137.865 21C141.424 21 144.568 21.7795 147.298 23.3385C150.028 24.8975 152.149 27.041 153.66 29.7692C155.22 32.4487 156 35.4449 156 38.7577C156 39.2936 155.975 39.8538 155.926 40.4385C155.926 41.0231 155.902 41.632 155.854 42.2654H128.286C128.481 45.091 129.457 47.3077 131.212 48.9154C133.015 50.5231 135.184 51.3269 137.719 51.3269C139.62 51.3269 141.204 50.9128 142.472 50.0846C143.788 49.2077 144.763 48.0872 145.397 46.7231H154.903C154.221 49.0128 153.075 51.1077 151.466 53.0076C149.906 54.859 147.956 56.3205 145.616 57.3923C143.325 58.4641 140.717 59 137.793 59ZM137.865 28.6C135.574 28.6 133.551 29.2577 131.796 30.5731C130.041 31.8398 128.92 33.7885 128.433 36.4193H146.494C146.348 34.032 145.47 32.1321 143.861 30.7193C142.253 29.3065 140.254 28.6 137.865 28.6Z" fill="#8E8E8E"></path><path d="M159 58V22H167.207L168.071 28.75C169.366 26.4275 171.118 25.4597 173.326 24.1049C175.582 22.7016 177.976 22 181 22V30.9274H178.653C176.637 30.9274 174.838 31.242 173.254 31.871C171.67 32.5 170.423 33.5887 169.511 35.1371C168.647 36.6855 168.215 38.8387 168.215 41.5967V48.7097C168.215 53.8406 164.089 58 159 58Z" fill="#8E8E8E"></path><path d="M183 58V21.874H191.138L191.858 27.9921C192.962 25.8557 194.547 24.1562 196.611 22.8937C198.724 21.6313 201.196 21 204.029 21C208.446 21 211.879 22.4082 214.327 25.2245C216.775 28.0407 218 32.168 218 37.6063V48.6772C218 53.826 213.873 58 208.782 58V38.4803C208.782 35.3727 208.158 32.9935 206.91 31.3426C205.661 29.6916 203.717 28.8661 201.076 28.8661C198.484 28.8661 196.347 29.7887 194.667 31.6339C193.034 33.479 192.218 36.0525 192.218 39.3543V58H183Z" fill="#8E8E8E"></path><path fill-rule="evenodd" clip-rule="evenodd" d="M2.03975 16.5317C0.733662 17.8374 0 19.6091 0 21.4562V58.0357C0 61.8817 3.118 65 6.96429 65H43.5439C45.3909 65 47.1624 64.2661 48.4683 62.9602L62.9602 48.4683C64.2664 47.1625 65 45.3909 65 43.5438V6.96429C65 3.11829 61.882 0 58.0357 0H21.4561C19.6091 0 17.8376 0.733951 16.5317 2.03975L2.03975 16.5317ZM32.5 36.5954C32.5 37.4331 33.179 38.112 34.0167 38.112H49.5453C52.9926 38.112 55.6563 37.2511 57.5367 35.5299C59.417 33.8087 60.3571 31.6255 60.3571 28.9799C60.3571 26.9713 59.746 25.2183 58.5238 23.7204C57.3016 22.1901 55.7504 21.2341 53.8701 20.8515C55.4683 20.4054 56.8159 19.5604 57.9128 18.3175C59.0409 17.0423 59.6051 15.3529 59.6051 13.249C59.6051 10.7309 58.6963 8.67533 56.8785 7.08161C55.0923 5.45558 52.4912 4.64286 49.0753 4.64286H34.0167C33.179 4.64286 32.5 5.32183 32.5 6.15949V36.5954Z" fill="#8E8E8E"></path></svg>