<svg xmlns="http://www.w3.org/2000/svg" width="223" height="65" viewBox="0 0 223 65" fill="none"><path d="M33.2793 2.32869C33.5306 0.273815 30.9668 -0.838016 29.6633 0.760745L0.470921 36.5636C-0.629511 37.9131 0.321533 39.9467 2.05312 39.9467H28.1824C29.4135 39.9467 30.3668 41.0351 30.216 42.2686L27.7206 62.6713C27.4694 64.7262 30.0332 65.838 31.3367 64.2393L60.529 28.4364C61.6295 27.0869 60.6785 25.0533 58.9468 25.0533H32.8177C31.5865 25.0533 30.6332 23.9648 30.784 22.7314L33.2793 2.32869Z" fill="#8E8E8E"></path><path fill-rule="evenodd" clip-rule="evenodd" d="M72.4377 53.1087L74.86 44.7527H89.2634L91.7241 53.1087H99.1617L87.4735 13H76.6882L65 53.1087H72.4377ZM87.1808 37.678H76.9108L82.0064 20.0996L87.1808 37.678ZM117.461 52.0781C115.611 53.3594 113.277 54 110.462 54C108.212 54 106.38 53.6008 104.963 52.8023C103.546 52.0039 102.444 50.9919 101.656 49.7663C100.867 48.5408 100.305 47.2642 99.9685 45.9365C99.6323 44.6088 99.4285 43.3972 99.3576 42.3016C99.2868 41.2061 99.2514 40.4076 99.2514 39.9063V23.0272H106.583V37.2324C106.583 37.9194 106.618 38.7967 106.689 39.8644C106.76 40.9322 106.982 42.0045 107.353 43.0815C107.726 44.1585 108.332 45.0591 109.173 45.7833C110.014 46.5075 111.206 46.8696 112.746 46.8696C113.366 46.8696 114.03 46.7675 114.738 46.5632C115.447 46.3589 116.111 45.9644 116.731 45.3794C117.351 44.7945 117.86 43.9311 118.258 42.7891C118.656 41.6471 118.856 40.1477 118.856 38.2908V23.0272H126.134V53.1087H119.759V50.0109L119.727 50.049C119.07 50.8104 118.315 51.4868 117.461 52.0781ZM136.999 53.1087V37.7337C136.999 36.5824 137.15 35.5472 137.451 34.6281C137.752 33.7089 138.195 32.9104 138.779 32.2327C139.364 31.5549 140.081 31.0118 140.931 30.6033C141.781 30.1762 142.732 29.9208 143.786 29.8373C144.84 29.7537 145.766 29.8419 146.562 30.1019V23.0272C145.695 22.9158 144.827 22.8925 143.959 22.9575C143.092 23.0225 142.25 23.1804 141.436 23.431C140.621 23.6817 139.868 24.0299 139.177 24.4755C138.274 25.0326 137.513 25.7382 136.893 26.5924C136.611 26.9807 136.355 27.3881 136.125 27.8147L136.096 27.8701L136.096 23.0272H129.721V53.1087H136.999ZM168.713 51.925C166.527 53.2712 163.998 53.9443 161.13 53.9443C158.242 53.9443 155.71 53.2666 153.532 51.9111C151.353 50.5555 149.658 48.6847 148.445 46.2986C147.232 43.9125 146.625 41.1689 146.625 38.0679C146.625 34.9298 147.245 32.1677 148.485 29.7816C149.724 27.3955 151.434 25.534 153.612 24.197C155.79 22.86 158.296 22.1916 161.13 22.1916C164.016 22.1916 166.553 22.8693 168.74 24.2249C170.928 25.5804 172.632 27.4512 173.854 29.8373C175.075 32.2234 175.687 34.967 175.687 38.0679C175.687 41.1875 175.071 43.9404 173.841 46.3264C172.61 48.7125 170.901 50.5787 168.713 51.925ZM161.129 46.8696C158.88 46.8696 157.176 46.0757 156.015 44.4881C154.856 42.9005 154.275 40.7605 154.275 38.0679C154.275 36.3225 154.519 34.7906 155.006 33.4722C155.493 32.1538 156.242 31.1232 157.251 30.3805C158.261 29.6377 159.553 29.2663 161.129 29.2663C163.414 29.2663 165.136 30.0648 166.296 31.6617C167.456 33.2587 168.036 35.3941 168.036 38.0679C168.036 40.6491 167.465 42.7613 166.323 44.4046C165.181 46.0479 163.449 46.8696 161.129 46.8696ZM185.298 37.7337V53.1087H178.02V23.0272H184.395V27.8691L184.424 27.8147C184.654 27.3881 184.91 26.9807 185.192 26.5924C185.812 25.7382 186.573 25.0326 187.476 24.4755C188.167 24.0299 188.92 23.6817 189.735 23.431C190.549 23.1804 191.39 23.0225 192.258 22.9575C193.126 22.8925 193.994 22.9158 194.861 23.0272V30.1019C194.065 29.8419 193.139 29.7537 192.085 29.8373C191.031 29.9208 190.079 30.1762 189.229 30.6033C188.38 31.0118 187.662 31.5549 187.078 32.2327C186.493 32.9104 186.051 33.7089 185.749 34.6281C185.449 35.5472 185.298 36.5824 185.298 37.7337ZM206.902 53.9443C209.382 53.9443 211.432 53.4941 213.052 52.5934C214.267 51.918 215.421 50.9266 216.511 49.6193L216.678 49.4159V53.1087H223V34.7255C223 33.3515 222.947 32.1073 222.841 30.9932C222.735 29.8791 222.398 28.7649 221.832 27.6508C220.822 25.6454 219.334 24.2342 217.369 23.4172C215.403 22.6001 213.154 22.1916 210.621 22.1916C207.168 22.1916 204.441 22.9714 202.439 24.5312C200.438 26.091 199.075 28.115 198.348 30.6033L204.883 32.7758C205.344 31.4017 206.15 30.4454 207.301 29.9069C208.452 29.3684 209.559 29.0992 210.621 29.0992C212.534 29.0992 213.898 29.517 214.712 30.3526C215.339 30.9953 215.724 31.9183 215.869 33.1215L215.877 33.1952L215.567 33.2436C214.616 33.3926 213.705 33.5346 212.833 33.6697L212.401 33.7368C210.542 34.0246 208.877 34.3264 207.407 34.642C205.937 34.9577 204.671 35.3198 203.608 35.7283C202.068 36.3225 200.841 37.0606 199.929 37.9426C199.017 38.8246 198.357 39.8412 197.95 40.9925C197.542 42.1438 197.339 43.4158 197.339 44.8085C197.339 46.4797 197.707 48.0069 198.442 49.3903C199.176 50.7737 200.257 51.8785 201.682 52.7049C203.108 53.5312 204.848 53.9443 206.902 53.9443ZM206.291 47.5938C206.894 47.8538 207.611 47.9838 208.443 47.9838C209.771 47.9838 210.891 47.7377 211.803 47.2456C212.716 46.7536 213.441 46.1919 213.981 45.5605C214.522 44.9292 214.889 44.4 215.084 43.9729C215.456 43.1559 215.673 42.2042 215.735 41.118L215.75 40.8502C215.778 40.3221 215.799 39.8393 215.812 39.4018L215.813 39.3346L215.577 39.376C214.487 39.5698 213.543 39.742 212.747 39.8924C211.418 40.143 210.347 40.3705 209.532 40.5748C208.717 40.7791 208 41.0019 207.381 41.2433C206.672 41.5403 206.101 41.8607 205.667 42.2042C205.233 42.5478 204.914 42.9237 204.71 43.3323C204.507 43.7408 204.405 44.1958 204.405 44.6971C204.405 45.3841 204.569 45.9737 204.897 46.4657C205.224 46.9578 205.689 47.3338 206.291 47.5938Z" fill="#8E8E8E"></path></svg>