<svg xmlns="http://www.w3.org/2000/svg" width="208" height="60" viewBox="0 0 208 60" fill="none"><path d="M98.2398 36.0505V57H105V34.6893C105 31.8657 104.399 29.3699 103.198 27.2018C101.995 25.0338 100.343 23.3446 98.2398 22.1346C96.1863 20.9245 93.8077 20.3194 91.1033 20.3194C88.399 20.3194 85.9699 20.9497 83.8167 22.2102C82.195 23.1217 80.8428 24.2907 79.7602 25.7172V3H73V57H79.7602V36.0505C79.7602 34.2355 80.1607 32.6221 80.9623 31.2103C81.7632 29.7985 82.865 28.6893 84.2677 27.8825C85.6697 27.0758 87.2723 26.6724 89.0754 26.6724C91.7791 26.6724 93.9827 27.5548 95.6855 29.3195C97.3884 31.0842 98.2398 33.3279 98.2398 36.0505Z" fill="#8E8E8E"></path><path d="M117.465 56.0164C119.851 57.3383 122.542 58 125.538 58C128.585 58 131.251 57.3383 133.536 56.0164C135.871 54.6431 137.7 52.7614 139.02 50.371C140.34 47.9807 141 45.2089 141 42.0558V21H134.145V41.7502C134.145 44.751 133.384 47.116 131.86 48.8454C130.337 50.5234 128.23 51.3628 125.538 51.3628C123.761 51.3628 122.213 50.9814 120.892 50.2186C119.571 49.4558 118.556 48.3621 117.846 46.9376C117.185 45.4632 116.855 43.7339 116.855 41.7502V21H110V42.0558C110 45.2089 110.66 47.9807 111.981 50.371C113.3 52.7614 115.129 54.6431 117.465 56.0164Z" fill="#8E8E8E"></path><path fill-rule="evenodd" clip-rule="evenodd" d="M163.267 58C159.633 58 156.358 57.1808 153.442 55.5431C150.525 53.8544 148.221 51.577 146.533 48.7108C144.845 45.8446 144 42.5954 144 38.9616C144 35.3791 144.819 32.1548 146.457 29.2889C148.145 26.4229 150.397 24.1711 153.211 22.5333C156.077 20.8444 159.275 20 162.806 20C166.184 20 169.151 20.7677 171.71 22.3031C174.32 23.8384 176.341 25.9622 177.774 28.6747C179.258 31.3872 180 34.4578 180 37.8865C180 38.3982 179.975 38.9616 179.923 39.5758C179.872 40.1384 179.77 40.8035 179.616 41.5719H151.063C151.306 42.9915 151.741 44.2963 152.367 45.487C153.39 47.3806 154.849 48.8642 156.742 49.9393C158.635 50.9628 160.81 51.4745 163.267 51.4745C165.314 51.4745 167.182 51.1162 168.87 50.3995C170.61 49.6834 172.094 48.6083 173.322 47.1756L177.774 51.705C176.034 53.752 173.885 55.3126 171.326 56.3877C168.819 57.4621 166.132 58 163.267 58ZM152.29 32.206C151.717 33.2929 151.312 34.4956 151.077 35.814H173.267C173.078 34.3048 172.687 32.9742 172.094 31.8221C171.224 30.0821 169.996 28.7515 168.409 27.8303C166.823 26.8579 164.904 26.3717 162.653 26.3717C160.298 26.3717 158.226 26.8835 156.435 27.907C154.644 28.9306 153.262 30.3636 152.29 32.206Z" fill="#8E8E8E"></path><path d="M183.956 54.9288C185.478 55.9014 187.127 56.669 188.902 57.2317C190.728 57.7441 192.656 58 194.685 58C198.743 58 201.964 57.002 204.348 55.0059C206.783 53.0098 208 50.2977 208 46.8681C208 44.6169 207.518 42.7996 206.555 41.4178C205.641 40.0359 204.449 38.9361 202.978 38.1169C201.507 37.2984 199.96 36.6587 198.337 36.1978C196.714 35.6861 195.142 35.1999 193.619 34.7393C192.149 34.2787 190.956 33.7157 190.043 33.0504C189.131 32.3851 188.674 31.4383 188.674 30.21C188.674 28.9818 189.181 28.035 190.196 27.3697C191.261 26.6532 192.783 26.295 194.761 26.295C196.638 26.295 198.312 26.6532 199.783 27.3697C201.305 28.0861 202.573 29.1097 203.587 30.4404L208 25.9878C206.58 23.9919 204.754 22.5078 202.522 21.5354C200.341 20.5118 197.83 20 194.989 20C192.301 20 189.992 20.4351 188.065 21.3051C186.188 22.1751 184.717 23.429 183.652 25.0666C182.587 26.6532 182.054 28.5468 182.054 30.7474C182.054 32.9481 182.511 34.7137 183.424 36.0445C184.388 37.3747 185.605 38.4244 187.076 39.192C188.547 39.9596 190.094 40.5993 191.717 41.111C193.392 41.5719 194.964 42.0575 196.435 42.5692C197.906 43.0301 199.098 43.6443 200.011 44.4119C200.975 45.1286 201.457 46.1521 201.457 47.4824C201.457 48.8133 200.873 49.8623 199.707 50.6299C198.54 51.3466 196.892 51.705 194.761 51.705C192.631 51.705 190.703 51.3212 188.978 50.5536C187.254 49.7343 185.731 48.5059 184.413 46.8681L180 51.3212C181.116 52.703 182.434 53.9053 183.956 54.9288Z" fill="#8E8E8E"></path><path d="M202 9V10.2369H200.305V14H198.695V10.2369H197V9H202Z" fill="#8E8E8E"></path><path d="M208 9V14H206.407V11.5735L205.239 12.7132H204.761L203.593 11.5735V14H202V9H202.563L205 11.1323L207.438 9H208Z" fill="#8E8E8E"></path><path d="M7.12185 17.6888C9.24836 24.5962 16.4994 28.4493 23.3176 26.295C30.1358 24.1408 46.2848 12.8943 44.1583 5.98694C42.0317 -0.920427 22.4353 -0.872973 15.617 1.28134C8.79883 3.43559 4.99541 10.7815 7.12185 17.6888Z" fill="#8E8E8E"></path><path d="M3.00145 55.5647C7.00338 59.6187 13.4911 59.6187 17.493 55.5647C21.495 51.5099 28.7404 37.5966 24.7392 33.5426C20.7373 29.4886 7.00338 36.8295 3.00145 40.8828C-1.00048 44.9376 -1.00048 51.5099 3.00145 55.5647Z" fill="#8E8E8E"></path><path d="M41.2946 59.5503C48.1937 61.423 55.2847 57.2758 57.1333 50.2864C58.9811 43.2978 58.2347 23.4595 51.3362 21.5866C44.437 19.7141 33.9995 36.5158 32.1508 43.5052C30.3021 50.4939 34.3959 57.6776 41.2946 59.5503Z" fill="#8E8E8E"></path></svg>