<svg xmlns="http://www.w3.org/2000/svg" width="98" height="65" viewBox="0 0 98 65" fill="none"><path d="M94.0105 9C93.2562 9 92.571 8.80624 91.9536 8.41865C91.3501 8.01557 90.8703 7.47289 90.5141 6.79073C90.1711 6.10855 90 5.34111 90 4.48839C90 3.63567 90.1781 2.87598 90.5343 2.20931C90.8912 1.52714 91.3711 0.992251 91.9745 0.604654C92.5773 0.201551 93.2562 0 94.0105 0C94.7641 0 95.443 0.201551 96.0464 0.604654C96.6499 0.992251 97.1228 1.52714 97.4657 2.20931C97.8219 2.87598 98 3.63567 98 4.48839C98 5.34111 97.8219 6.10855 97.4657 6.79073C97.1228 7.47289 96.6499 8.01557 96.0464 8.41865C95.457 8.80624 94.7781 9 94.0105 9ZM94.0105 8.34888C94.6544 8.34888 95.2307 8.18607 95.7377 7.86047C96.2588 7.51941 96.6632 7.05429 96.9516 6.46514C97.2527 5.87599 97.4035 5.21708 97.4035 4.48839C97.4035 3.7597 97.2527 3.10854 96.9516 2.5349C96.6632 1.94574 96.2588 1.48838 95.7377 1.1628C95.2307 0.821711 94.6544 0.651166 94.0105 0.651166C93.3658 0.651166 92.7833 0.821711 92.2623 1.1628C91.7545 1.48838 91.3501 1.94574 91.0484 2.5349C90.7606 3.10854 90.6167 3.7597 90.6167 4.48839C90.6167 5.21708 90.7606 5.87599 91.0484 6.46514C91.3501 7.05429 91.7545 7.51941 92.2623 7.86047C92.7833 8.18607 93.3658 8.34888 94.0105 8.34888ZM93.1668 6.95351H92.5298V1.93024H94.1334C94.6132 1.93024 94.9974 2.06978 95.2851 2.34885C95.5736 2.61242 95.7175 2.98451 95.7175 3.46513C95.7175 3.79071 95.6421 4.07754 95.4912 4.3256C95.3403 4.57366 95.107 4.75971 94.792 4.88374L95.7999 6.95351H95.0798L94.1746 5.04653H93.1668V6.95351ZM95.0386 3.48839C95.0386 2.89923 94.7299 2.60466 94.1131 2.60466H93.1668V4.37211H94.1131C94.4009 4.37211 94.6272 4.30234 94.792 4.16281C94.9562 4.00777 95.0386 3.78296 95.0386 3.48839Z" fill="#8E8E8E"></path><path d="M0 42.0582C0 29.3882 10.3241 19.117 23.0595 19.117C35.7949 19.117 46.119 29.3882 46.119 42.0582V54.8033C46.119 60.4345 41.5305 64.9994 35.8704 64.9994H23.0595C10.3241 64.9994 0 54.7283 0 42.0582Z" fill="#8E8E8E"></path><path d="M51.8811 11.4706C51.8811 5.13556 57.0432 0 63.4109 0C69.7786 0 74.941 5.13555 74.941 11.4706V13.0149C74.941 16.049 76.888 18.7443 79.7787 19.7115L83.0542 20.8077C91.9848 23.7959 98 32.123 98 41.4967V42.1973C98 54.7909 87.7387 65 75.0797 65H62.1298C56.4696 65 51.8811 60.435 51.8811 54.8039V11.4706Z" fill="#8E8E8E"></path></svg>